# Blender 4.4.3
# www.blender.org
mtllib planet.mtl
o Sphere.001
v 0.057613 0.809017 -0.584955
v 0.093220 0.309017 -0.946477
v 0.093220 -0.309017 -0.946477
v 0.057613 -0.809017 -0.584955
v 0.454364 0.809017 -0.372887
v 0.735177 0.309017 -0.603344
v 0.735177 -0.309017 -0.603344
v 0.454364 -0.809017 -0.372887
v 0.584955 0.809017 0.057613
v 0.946477 0.309017 0.093220
v 0.946477 -0.309017 0.093220
v 0.584955 -0.809017 0.057613
v 0.372887 0.809017 0.454364
v 0.603344 0.309017 0.735177
v 0.603344 -0.309017 0.735177
v 0.372887 -0.809017 0.454364
v -0.057613 0.809017 0.584955
v -0.093220 0.309017 0.946477
v -0.093220 -0.309017 0.946477
v -0.057613 -0.809017 0.584955
v 0.000000 -1.000000 0.000000
v 0.000000 1.000000 0.000000
v -0.454364 0.809017 0.372887
v -0.735177 0.309017 0.603344
v -0.735177 -0.309017 0.603344
v -0.454364 -0.809017 0.372887
v -0.584955 0.809017 -0.057613
v -0.946477 0.309017 -0.093220
v -0.946477 -0.309017 -0.093220
v -0.584955 -0.809017 -0.057613
v -0.372887 0.809017 -0.454364
v -0.603344 0.309017 -0.735177
v -0.603344 -0.309017 -0.735177
v -0.372887 -0.809017 -0.454364
vn -0.0963 -0.9434 -0.3175
vn -0.2903 -0.0000 -0.9569
vn -0.0963 0.9434 -0.3175
vn -0.2410 -0.5573 -0.7945
vn -0.2410 0.5573 -0.7945
vn 0.3914 -0.5573 -0.7323
vn 0.3914 0.5573 -0.7323
vn 0.1564 -0.9434 -0.2926
vn 0.4714 -0.0000 -0.8819
vn 0.1564 0.9434 -0.2926
vn 0.7945 -0.5573 -0.2410
vn 0.7945 0.5573 -0.2410
vn 0.3175 -0.9434 -0.0963
vn 0.9569 -0.0000 -0.2903
vn 0.3175 0.9434 -0.0963
vn 0.7323 -0.5573 0.3914
vn 0.7323 0.5573 0.3914
vn 0.2926 -0.9434 0.1564
vn 0.8819 -0.0000 0.4714
vn 0.2926 0.9434 0.1564
vn 0.2410 -0.5573 0.7945
vn 0.2410 0.5573 0.7945
vn 0.0963 -0.9434 0.3175
vn 0.2903 -0.0000 0.9569
vn 0.0963 0.9434 0.3175
vn -0.3914 -0.5573 0.7323
vn -0.3914 0.5573 0.7323
vn -0.1564 -0.9434 0.2926
vn -0.4714 -0.0000 0.8819
vn -0.1564 0.9434 0.2926
vn -0.7945 -0.5573 0.2410
vn -0.7945 0.5573 0.2410
vn -0.3175 -0.9434 0.0963
vn -0.9569 -0.0000 0.2903
vn -0.3175 0.9434 0.0963
vn -0.7323 -0.5573 -0.3914
vn -0.7323 0.5573 -0.3914
vn -0.2926 -0.9434 -0.1564
vn -0.8819 -0.0000 -0.4714
vn -0.2926 0.9434 -0.1564
vt 0.687500 0.000000
vt 0.750000 0.200000
vt 0.625000 0.200000
vt 0.750000 0.400000
vt 0.750000 0.600000
vt 0.625000 0.600000
vt 0.625000 0.400000
vt 0.750000 0.800000
vt 0.687500 1.000000
vt 0.625000 0.800000
vt 0.500000 0.400000
vt 0.500000 0.200000
vt 0.500000 0.800000
vt 0.500000 0.600000
vt 0.562500 0.000000
vt 0.562500 1.000000
vt 0.375000 0.400000
vt 0.375000 0.200000
vt 0.375000 0.800000
vt 0.375000 0.600000
vt 0.437500 0.000000
vt 0.437500 1.000000
vt 0.250000 0.400000
vt 0.250000 0.200000
vt 0.250000 0.800000
vt 0.250000 0.600000
vt 0.312500 0.000000
vt 0.312500 1.000000
vt 0.125000 0.400000
vt 0.125000 0.200000
vt 0.125000 0.800000
vt 0.125000 0.600000
vt 0.187500 0.000000
vt 0.187500 1.000000
vt 0.000000 0.400000
vt 0.000000 0.200000
vt 0.000000 0.800000
vt 0.000000 0.600000
vt 0.062500 0.000000
vt 0.062500 1.000000
vt 1.000000 0.200000
vt 1.000000 0.400000
vt 0.875000 0.400000
vt 0.875000 0.200000
vt 1.000000 0.600000
vt 1.000000 0.800000
vt 0.875000 0.800000
vt 0.875000 0.600000
vt 0.937500 0.000000
vt 0.937500 1.000000
vt 0.812500 0.000000
vt 0.812500 1.000000
s 0
f 21/1/1 34/2/1 4/3/1
f 33/4/2 32/5/2 2/6/2 3/7/2
f 31/8/3 22/9/3 1/10/3
f 34/2/4 33/4/4 3/7/4 4/3/4
f 32/5/5 31/8/5 1/10/5 2/6/5
f 4/3/6 3/7/6 7/11/6 8/12/6
f 2/6/7 1/10/7 5/13/7 6/14/7
f 21/15/8 4/3/8 8/12/8
f 3/7/9 2/6/9 6/14/9 7/11/9
f 1/10/10 22/16/10 5/13/10
f 8/12/11 7/11/11 11/17/11 12/18/11
f 6/14/12 5/13/12 9/19/12 10/20/12
f 21/21/13 8/12/13 12/18/13
f 7/11/14 6/14/14 10/20/14 11/17/14
f 5/13/15 22/22/15 9/19/15
f 12/18/16 11/17/16 15/23/16 16/24/16
f 10/20/17 9/19/17 13/25/17 14/26/17
f 21/27/18 12/18/18 16/24/18
f 11/17/19 10/20/19 14/26/19 15/23/19
f 9/19/20 22/28/20 13/25/20
f 16/24/21 15/23/21 19/29/21 20/30/21
f 14/26/22 13/25/22 17/31/22 18/32/22
f 21/33/23 16/24/23 20/30/23
f 15/23/24 14/26/24 18/32/24 19/29/24
f 13/25/25 22/34/25 17/31/25
f 20/30/26 19/29/26 25/35/26 26/36/26
f 18/32/27 17/31/27 23/37/27 24/38/27
f 21/39/28 20/30/28 26/36/28
f 19/29/29 18/32/29 24/38/29 25/35/29
f 17/31/30 22/40/30 23/37/30
f 26/41/31 25/42/31 29/43/31 30/44/31
f 24/45/32 23/46/32 27/47/32 28/48/32
f 21/49/33 26/41/33 30/44/33
f 25/42/34 24/45/34 28/48/34 29/43/34
f 23/46/35 22/50/35 27/47/35
f 30/44/36 29/43/36 33/4/36 34/2/36
f 28/48/37 27/47/37 31/8/37 32/5/37
f 21/51/38 30/44/38 34/2/38
f 29/43/39 28/48/39 32/5/39 33/4/39
f 27/47/40 22/52/40 31/8/40
