# Blender 4.4.3
# www.blender.org
mtllib balan.mtl
o Balan
v 0.360788 0.923880 -0.360788
v 0.666650 0.707107 -0.666650
v 0.871020 0.382683 -0.871020
v 0.942785 0.000000 -0.942785
v 0.871020 -0.382683 -0.871020
v 0.666650 -0.707107 -0.666650
v 0.360788 -0.923880 -0.360788
v 0.510232 0.923880 0.000000
v 0.942785 0.707107 0.000000
v 1.231808 0.382683 0.000000
v 1.333300 0.000000 0.000000
v 1.231808 -0.382683 0.000000
v 0.942785 -0.707107 0.000000
v 0.510232 -0.923880 0.000000
v 0.360788 0.923880 0.360788
v 0.666650 0.707107 0.666650
v 0.871020 0.382683 0.871020
v 0.942785 0.000000 0.942785
v 0.871020 -0.382683 0.871020
v 0.666650 -0.707107 0.666650
v 0.360788 -0.923880 0.360788
v 0.000000 0.923880 0.510232
v 0.000000 0.707107 0.942785
v 0.000000 0.382683 1.231808
v 0.000000 0.000000 1.333300
v 0.000000 -0.382683 1.231808
v 0.000000 -0.707107 0.942785
v 0.000000 -0.923880 0.510232
v -0.360788 0.923880 0.360788
v -0.666650 0.707107 0.666650
v -0.871020 0.382683 0.871020
v -0.942785 0.000000 0.942785
v -0.871020 -0.382683 0.871020
v -0.666650 -0.707107 0.666650
v -0.360788 -0.923880 0.360788
v -0.510232 0.923880 0.000000
v -0.942785 0.707107 0.000000
v -1.231808 0.382683 0.000000
v -1.333300 0.000000 0.000000
v -1.231808 -0.382683 0.000000
v -0.942785 -0.707107 0.000000
v -0.510232 -0.923880 0.000000
v -0.360788 0.923880 -0.360788
v -0.666650 0.707107 -0.666650
v -0.871020 0.382683 -0.871020
v -0.942785 0.000000 -0.942785
v -0.871020 -0.382683 -0.871020
v -0.666650 -0.707107 -0.666650
v -0.360788 -0.923880 -0.360788
v 0.000000 -1.000000 0.000000
v 0.000000 1.000000 0.000000
v 0.000000 0.923880 -0.510232
v 0.000000 0.707107 -0.942785
v 0.000000 0.382683 -1.231808
v 0.000000 0.000000 -1.333300
v 0.000000 -0.382683 -1.231808
v 0.000000 -0.707107 -0.942785
v 0.000000 -0.923880 -0.510232
vn 0.0610 -0.9872 -0.1473
vn 0.2955 -0.6355 -0.7133
vn 0.3717 0.2380 -0.8973
vn 0.1825 0.8790 -0.4405
vn 0.1825 -0.8790 -0.4405
vn 0.3717 -0.2380 -0.8973
vn 0.2955 0.6355 -0.7133
vn 0.0610 0.9872 -0.1473
vn 0.4405 -0.8790 -0.1825
vn 0.8973 -0.2380 -0.3717
vn 0.7133 0.6355 -0.2955
vn 0.1473 0.9872 -0.0610
vn 0.1473 -0.9872 -0.0610
vn 0.7133 -0.6355 -0.2955
vn 0.8973 0.2380 -0.3717
vn 0.4405 0.8790 -0.1825
vn 0.8973 -0.2380 0.3717
vn 0.7133 0.6355 0.2955
vn 0.1473 0.9872 0.0610
vn 0.1473 -0.9872 0.0610
vn 0.7133 -0.6355 0.2955
vn 0.8973 0.2380 0.3717
vn 0.4405 0.8790 0.1825
vn 0.4405 -0.8790 0.1825
vn 0.0610 -0.9872 0.1473
vn 0.2955 -0.6355 0.7133
vn 0.3717 0.2380 0.8973
vn 0.1825 0.8790 0.4405
vn 0.1825 -0.8790 0.4405
vn 0.3717 -0.2380 0.8973
vn 0.2955 0.6355 0.7133
vn 0.0610 0.9872 0.1473
vn -0.3717 0.2380 0.8973
vn -0.1825 0.8790 0.4405
vn -0.1825 -0.8790 0.4405
vn -0.3717 -0.2380 0.8973
vn -0.2955 0.6355 0.7133
vn -0.0610 0.9872 0.1473
vn -0.0610 -0.9872 0.1473
vn -0.2955 -0.6355 0.7133
vn -0.4405 -0.8790 0.1825
vn -0.8973 -0.2380 0.3717
vn -0.7133 0.6355 0.2955
vn -0.1473 0.9872 0.0610
vn -0.1473 -0.9872 0.0610
vn -0.7133 -0.6355 0.2955
vn -0.8973 0.2380 0.3717
vn -0.4405 0.8790 0.1825
vn -0.7133 0.6355 -0.2955
vn -0.1473 0.9872 -0.0610
vn -0.1473 -0.9872 -0.0610
vn -0.7133 -0.6355 -0.2955
vn -0.8973 0.2380 -0.3717
vn -0.4405 0.8790 -0.1825
vn -0.4405 -0.8790 -0.1825
vn -0.8973 -0.2380 -0.3717
vn -0.0610 -0.9872 -0.1473
vn -0.2955 -0.6355 -0.7133
vn -0.3717 0.2380 -0.8973
vn -0.1825 0.8790 -0.4405
vn -0.1825 -0.8790 -0.4405
vn -0.3717 -0.2380 -0.8973
vn -0.2955 0.6355 -0.7133
vn -0.0610 0.9872 -0.1473
vt 0.687500 0.000000
vt 0.750000 0.125000
vt 0.625000 0.125000
vt 0.750000 0.250000
vt 0.750000 0.375000
vt 0.625000 0.375000
vt 0.625000 0.250000
vt 0.750000 0.500000
vt 0.750000 0.625000
vt 0.625000 0.625000
vt 0.625000 0.500000
vt 0.750000 0.750000
vt 0.750000 0.875000
vt 0.625000 0.875000
vt 0.625000 0.750000
vt 0.687500 1.000000
vt 0.500000 0.250000
vt 0.500000 0.125000
vt 0.500000 0.500000
vt 0.500000 0.375000
vt 0.500000 0.750000
vt 0.500000 0.625000
vt 0.562500 1.000000
vt 0.500000 0.875000
vt 0.562500 0.000000
vt 0.375000 0.500000
vt 0.375000 0.375000
vt 0.375000 0.750000
vt 0.375000 0.625000
vt 0.437500 1.000000
vt 0.375000 0.875000
vt 0.437500 0.000000
vt 0.375000 0.125000
vt 0.375000 0.250000
vt 0.312500 0.000000
vt 0.250000 0.125000
vt 0.250000 0.375000
vt 0.250000 0.250000
vt 0.250000 0.625000
vt 0.250000 0.500000
vt 0.250000 0.875000
vt 0.250000 0.750000
vt 0.312500 1.000000
vt 0.125000 0.625000
vt 0.125000 0.500000
vt 0.125000 0.875000
vt 0.125000 0.750000
vt 0.125000 0.250000
vt 0.125000 0.125000
vt 0.125000 0.375000
vt 0.187500 1.000000
vt 0.187500 0.000000
vt 0.000000 0.250000
vt 0.000000 0.125000
vt 0.000000 0.500000
vt 0.000000 0.375000
vt 0.000000 0.750000
vt 0.000000 0.625000
vt 0.062500 1.000000
vt 0.000000 0.875000
vt 0.062500 0.000000
vt 1.000000 0.625000
vt 1.000000 0.750000
vt 0.875000 0.750000
vt 0.875000 0.625000
vt 1.000000 0.875000
vt 0.937500 1.000000
vt 0.875000 0.875000
vt 0.937500 0.000000
vt 1.000000 0.125000
vt 0.875000 0.125000
vt 1.000000 0.250000
vt 1.000000 0.375000
vt 0.875000 0.375000
vt 0.875000 0.250000
vt 1.000000 0.500000
vt 0.875000 0.500000
vt 0.812500 0.000000
vt 0.812500 1.000000
s 0
f 50/1/1 58/2/1 7/3/1
f 57/4/2 56/5/2 5/6/2 6/7/2
f 55/8/3 54/9/3 3/10/3 4/11/3
f 53/12/4 52/13/4 1/14/4 2/15/4
f 58/2/5 57/4/5 6/7/5 7/3/5
f 56/5/6 55/8/6 4/11/6 5/6/6
f 54/9/7 53/12/7 2/15/7 3/10/7
f 52/13/8 51/16/8 1/14/8
f 7/3/9 6/7/9 13/17/9 14/18/9
f 5/6/10 4/11/10 11/19/10 12/20/10
f 3/10/11 2/15/11 9/21/11 10/22/11
f 1/14/12 51/23/12 8/24/12
f 50/25/13 7/3/13 14/18/13
f 6/7/14 5/6/14 12/20/14 13/17/14
f 4/11/15 3/10/15 10/22/15 11/19/15
f 2/15/16 1/14/16 8/24/16 9/21/16
f 12/20/17 11/19/17 18/26/17 19/27/17
f 10/22/18 9/21/18 16/28/18 17/29/18
f 8/24/19 51/30/19 15/31/19
f 50/32/20 14/18/20 21/33/20
f 13/17/21 12/20/21 19/27/21 20/34/21
f 11/19/22 10/22/22 17/29/22 18/26/22
f 9/21/23 8/24/23 15/31/23 16/28/23
f 14/18/24 13/17/24 20/34/24 21/33/24
f 50/35/25 21/33/25 28/36/25
f 20/34/26 19/27/26 26/37/26 27/38/26
f 18/26/27 17/29/27 24/39/27 25/40/27
f 16/28/28 15/31/28 22/41/28 23/42/28
f 21/33/29 20/34/29 27/38/29 28/36/29
f 19/27/30 18/26/30 25/40/30 26/37/30
f 17/29/31 16/28/31 23/42/31 24/39/31
f 15/31/32 51/43/32 22/41/32
f 25/40/33 24/39/33 31/44/33 32/45/33
f 23/42/34 22/41/34 29/46/34 30/47/34
f 28/36/35 27/38/35 34/48/35 35/49/35
f 26/37/36 25/40/36 32/45/36 33/50/36
f 24/39/37 23/42/37 30/47/37 31/44/37
f 22/41/38 51/51/38 29/46/38
f 50/52/39 28/36/39 35/49/39
f 27/38/40 26/37/40 33/50/40 34/48/40
f 35/49/41 34/48/41 41/53/41 42/54/41
f 33/50/42 32/45/42 39/55/42 40/56/42
f 31/44/43 30/47/43 37/57/43 38/58/43
f 29/46/44 51/59/44 36/60/44
f 50/61/45 35/49/45 42/54/45
f 34/48/46 33/50/46 40/56/46 41/53/46
f 32/45/47 31/44/47 38/58/47 39/55/47
f 30/47/48 29/46/48 36/60/48 37/57/48
f 38/62/49 37/63/49 44/64/49 45/65/49
f 36/66/50 51/67/50 43/68/50
f 50/69/51 42/70/51 49/71/51
f 41/72/52 40/73/52 47/74/52 48/75/52
f 39/76/53 38/62/53 45/65/53 46/77/53
f 37/63/54 36/66/54 43/68/54 44/64/54
f 42/70/55 41/72/55 48/75/55 49/71/55
f 40/73/56 39/76/56 46/77/56 47/74/56
f 50/78/57 49/71/57 58/2/57
f 48/75/58 47/74/58 56/5/58 57/4/58
f 46/77/59 45/65/59 54/9/59 55/8/59
f 44/64/60 43/68/60 52/13/60 53/12/60
f 49/71/61 48/75/61 57/4/61 58/2/61
f 47/74/62 46/77/62 55/8/62 56/5/62
f 45/65/63 44/64/63 53/12/63 54/9/63
f 43/68/64 51/79/64 52/13/64
