# Blender 4.4.3
# www.blender.org
mtllib big_sphere.mtl
o BigSphere
v 0.217963 1.141268 -0.300000
v 0.414590 0.970820 -0.570634
v 0.570634 0.705342 -0.785410
v 0.670820 0.370820 -0.923305
v 0.705342 0.000000 -0.970820
v 0.670820 -0.370820 -0.923305
v 0.570634 -0.705342 -0.785410
v 0.414590 -0.970820 -0.570634
v 0.217963 -1.141268 -0.300000
v 0.352671 1.141268 -0.114590
v 0.670820 0.970820 -0.217963
v 0.923305 0.705342 -0.300000
v 1.085410 0.370820 -0.352671
v 1.141268 0.000000 -0.370820
v 1.085410 -0.370820 -0.352671
v 0.923305 -0.705342 -0.300000
v 0.670820 -0.970820 -0.217963
v 0.352671 -1.141268 -0.114590
v 0.352671 1.141268 0.114590
v 0.670820 0.970820 0.217963
v 0.923305 0.705342 0.300000
v 1.085410 0.370820 0.352671
v 1.141268 0.000000 0.370820
v 1.085410 -0.370820 0.352671
v 0.923305 -0.705342 0.300000
v 0.670820 -0.970820 0.217963
v 0.352671 -1.141268 0.114590
v 0.217963 1.141268 0.300000
v 0.414590 0.970820 0.570634
v 0.570634 0.705342 0.785410
v 0.670821 0.370820 0.923305
v 0.705342 0.000000 0.970820
v 0.670821 -0.370820 0.923305
v 0.570634 -0.705342 0.785410
v 0.414590 -0.970820 0.570634
v 0.217963 -1.141268 0.300000
v 0.000000 1.141268 0.370820
v 0.000000 0.970820 0.705342
v 0.000000 0.705342 0.970820
v 0.000000 0.370820 1.141268
v 0.000000 0.000000 1.200000
v 0.000000 -0.370820 1.141268
v 0.000000 -0.705342 0.970820
v 0.000000 -0.970820 0.705342
v 0.000000 -1.141268 0.370820
v -0.217963 1.141268 0.300000
v -0.414590 0.970820 0.570634
v -0.570634 0.705342 0.785410
v -0.670820 0.370820 0.923305
v -0.705342 0.000000 0.970820
v -0.670820 -0.370820 0.923305
v -0.570634 -0.705342 0.785410
v -0.414590 -0.970820 0.570634
v -0.217963 -1.141268 0.300000
v -0.352671 1.141268 0.114590
v -0.670820 0.970820 0.217963
v -0.923305 0.705342 0.300000
v -1.085410 0.370820 0.352671
v -1.141268 0.000000 0.370820
v -1.085410 -0.370820 0.352671
v -0.923305 -0.705342 0.300000
v -0.670820 -0.970820 0.217963
v -0.352671 -1.141268 0.114590
v 0.000000 -1.200000 0.000000
v -0.352671 1.141268 -0.114590
v -0.670820 0.970820 -0.217963
v -0.923305 0.705342 -0.300000
v -1.085410 0.370820 -0.352671
v -1.141268 0.000000 -0.370820
v -1.085410 -0.370820 -0.352671
v -0.923305 -0.705342 -0.300000
v -0.670820 -0.970820 -0.217963
v -0.352671 -1.141268 -0.114590
v -0.217963 1.141268 -0.300000
v -0.414590 0.970820 -0.570634
v -0.570634 0.705342 -0.785410
v -0.670821 0.370820 -0.923305
v -0.705342 0.000000 -0.970820
v -0.670821 -0.370820 -0.923305
v -0.570634 -0.705342 -0.785410
v -0.414590 -0.970820 -0.570634
v -0.217963 -1.141268 -0.300000
v 0.000000 1.200000 0.000000
v -0.000000 1.141268 -0.370820
v 0.000000 0.970820 -0.705342
v -0.000000 0.705342 -0.970821
v -0.000000 0.370820 -1.141268
v -0.000000 0.000000 -1.200000
v -0.000000 -0.370820 -1.141268
v -0.000000 -0.705342 -0.970821
v 0.000000 -0.970820 -0.705342
v -0.000000 -1.141268 -0.370820
vn 0.3056 0.1490 -0.9404
vn 0.1459 0.8815 -0.4491
vn 0.1459 -0.8815 -0.4491
vn 0.3056 -0.1490 -0.9404
vn 0.2239 0.6892 -0.6892
vn 0.0508 -0.9864 -0.1562
vn 0.2781 -0.4361 -0.8559
vn 0.2781 0.4361 -0.8559
vn 0.0508 0.9864 -0.1562
vn 0.2239 -0.6892 -0.6892
vn 0.3821 0.8815 -0.2776
vn 0.3821 -0.8815 -0.2776
vn 0.8000 -0.1490 -0.5812
vn 0.5862 0.6892 -0.4259
vn 0.1329 -0.9864 -0.0966
vn 0.7280 -0.4361 -0.5290
vn 0.7280 0.4361 -0.5290
vn 0.1329 0.9864 -0.0966
vn 0.5862 -0.6892 -0.4259
vn 0.8000 0.1490 -0.5812
vn 0.7246 -0.6892 -0.0000
vn 0.9888 0.1490 -0.0000
vn 0.4722 0.8815 -0.0000
vn 0.4722 -0.8815 -0.0000
vn 0.9888 -0.1490 -0.0000
vn 0.7246 0.6892 -0.0000
vn 0.1643 -0.9864 -0.0000
vn 0.8999 -0.4361 -0.0000
vn 0.8999 0.4361 -0.0000
vn 0.1643 0.9864 -0.0000
vn 0.7280 0.4361 0.5290
vn 0.1329 0.9864 0.0966
vn 0.5862 -0.6892 0.4259
vn 0.8000 0.1490 0.5812
vn 0.3821 0.8815 0.2776
vn 0.3821 -0.8815 0.2776
vn 0.8000 -0.1490 0.5812
vn 0.5862 0.6892 0.4259
vn 0.1329 -0.9864 0.0966
vn 0.7280 -0.4361 0.5290
vn 0.2781 -0.4361 0.8559
vn 0.2781 0.4361 0.8559
vn 0.0508 0.9864 0.1562
vn 0.2239 -0.6892 0.6892
vn 0.3056 0.1490 0.9404
vn 0.1459 0.8815 0.4491
vn 0.1459 -0.8815 0.4491
vn 0.3056 -0.1490 0.9404
vn 0.2239 0.6892 0.6892
vn 0.0508 -0.9864 0.1562
vn -0.2239 0.6892 0.6892
vn -0.0508 -0.9864 0.1562
vn -0.2781 -0.4361 0.8559
vn -0.2781 0.4361 0.8559
vn -0.0508 0.9864 0.1562
vn -0.2239 -0.6892 0.6892
vn -0.3056 0.1490 0.9404
vn -0.1459 0.8815 0.4491
vn -0.1459 -0.8815 0.4491
vn -0.3056 -0.1490 0.9404
vn -0.3821 -0.8815 0.2776
vn -0.8000 -0.1490 0.5812
vn -0.5862 0.6892 0.4259
vn -0.1329 -0.9864 0.0966
vn -0.7280 -0.4361 0.5290
vn -0.7280 0.4361 0.5290
vn -0.1329 0.9864 0.0966
vn -0.5862 -0.6892 0.4259
vn -0.8000 0.1490 0.5812
vn -0.3821 0.8815 0.2776
vn -0.9888 0.1490 -0.0000
vn -0.4722 0.8815 -0.0000
vn -0.4722 -0.8815 -0.0000
vn -0.9888 -0.1490 -0.0000
vn -0.7246 0.6892 -0.0000
vn -0.1643 -0.9864 -0.0000
vn -0.8999 -0.4361 -0.0000
vn -0.8999 0.4361 -0.0000
vn -0.1643 0.9864 -0.0000
vn -0.7246 -0.6892 -0.0000
vn -0.1329 0.9864 -0.0966
vn -0.5862 -0.6892 -0.4259
vn -0.8000 0.1490 -0.5812
vn -0.3821 0.8815 -0.2776
vn -0.3821 -0.8815 -0.2776
vn -0.8000 -0.1490 -0.5812
vn -0.5862 0.6892 -0.4259
vn -0.1329 -0.9864 -0.0966
vn -0.7280 -0.4361 -0.5290
vn -0.7280 0.4361 -0.5290
vn -0.2781 0.4361 -0.8559
vn -0.0508 0.9864 -0.1562
vn -0.2239 -0.6892 -0.6892
vn -0.3056 0.1490 -0.9404
vn -0.1459 0.8815 -0.4491
vn -0.1459 -0.8815 -0.4491
vn -0.3056 -0.1490 -0.9404
vn -0.2239 0.6892 -0.6892
vn -0.0508 -0.9864 -0.1562
vn -0.2781 -0.4361 -0.8559
vt 0.700000 0.500000
vt 0.700000 0.600000
vt 0.600000 0.600000
vt 0.600000 0.500000
vt 0.700000 0.800000
vt 0.700000 0.900000
vt 0.600000 0.900000
vt 0.600000 0.800000
vt 0.700000 0.100000
vt 0.700000 0.200000
vt 0.600000 0.200000
vt 0.600000 0.100000
vt 0.700000 0.400000
vt 0.600000 0.400000
vt 0.700000 0.700000
vt 0.600000 0.700000
vt 0.650000 0.000000
vt 0.700000 0.300000
vt 0.600000 0.300000
vt 0.650000 1.000000
vt 0.500000 0.900000
vt 0.500000 0.800000
vt 0.500000 0.200000
vt 0.500000 0.100000
vt 0.500000 0.500000
vt 0.500000 0.400000
vt 0.500000 0.700000
vt 0.550000 0.000000
vt 0.500000 0.300000
vt 0.500000 0.600000
vt 0.550000 1.000000
vt 0.400000 0.300000
vt 0.400000 0.200000
vt 0.400000 0.600000
vt 0.400000 0.500000
vt 0.400000 0.900000
vt 0.400000 0.800000
vt 0.400000 0.100000
vt 0.400000 0.400000
vt 0.400000 0.700000
vt 0.450000 0.000000
vt 0.450000 1.000000
vt 0.300000 0.700000
vt 0.300000 0.600000
vt 0.350000 1.000000
vt 0.300000 0.900000
vt 0.300000 0.300000
vt 0.300000 0.200000
vt 0.300000 0.500000
vt 0.300000 0.800000
vt 0.300000 0.100000
vt 0.300000 0.400000
vt 0.350000 0.000000
vt 0.200000 0.400000
vt 0.200000 0.300000
vt 0.200000 0.700000
vt 0.200000 0.600000
vt 0.250000 1.000000
vt 0.200000 0.900000
vt 0.200000 0.200000
vt 0.200000 0.500000
vt 0.200000 0.800000
vt 0.200000 0.100000
vt 0.250000 0.000000
vt 0.100000 0.800000
vt 0.100000 0.700000
vt 0.150000 0.000000
vt 0.100000 0.100000
vt 0.100000 0.400000
vt 0.100000 0.300000
vt 0.100000 0.600000
vt 0.150000 1.000000
vt 0.100000 0.900000
vt 0.100000 0.200000
vt 0.100000 0.500000
vt 0.000000 0.200000
vt 0.000000 0.100000
vt 0.000000 0.500000
vt 0.000000 0.400000
vt 0.000000 0.800000
vt 0.000000 0.700000
vt 0.050000 0.000000
vt 0.000000 0.300000
vt 0.000000 0.600000
vt 0.050000 1.000000
vt 0.000000 0.900000
vt 1.000000 0.500000
vt 1.000000 0.600000
vt 0.900000 0.600000
vt 0.900000 0.500000
vt 1.000000 0.800000
vt 1.000000 0.900000
vt 0.900000 0.900000
vt 0.900000 0.800000
vt 1.000000 0.100000
vt 1.000000 0.200000
vt 0.900000 0.200000
vt 0.900000 0.100000
vt 1.000000 0.400000
vt 0.900000 0.400000
vt 1.000000 0.700000
vt 0.900000 0.700000
vt 0.950000 0.000000
vt 1.000000 0.300000
vt 0.900000 0.300000
vt 0.950000 1.000000
vt 0.850000 1.000000
vt 0.800000 0.900000
vt 0.800000 0.300000
vt 0.800000 0.200000
vt 0.800000 0.600000
vt 0.800000 0.500000
vt 0.800000 0.800000
vt 0.800000 0.100000
vt 0.800000 0.400000
vt 0.800000 0.700000
vt 0.850000 0.000000
vt 0.750000 1.000000
vt 0.750000 0.000000
s 0
f 88/1/1 87/2/1 4/3/1 5/4/1
f 85/5/2 84/6/2 1/7/2 2/8/2
f 92/9/3 91/10/3 8/11/3 9/12/3
f 89/13/4 88/1/4 5/4/4 6/14/4
f 86/15/5 85/5/5 2/8/5 3/16/5
f 64/17/6 92/9/6 9/12/6
f 90/18/7 89/13/7 6/14/7 7/19/7
f 87/2/8 86/15/8 3/16/8 4/3/8
f 84/6/9 83/20/9 1/7/9
f 91/10/10 90/18/10 7/19/10 8/11/10
f 2/8/11 1/7/11 10/21/11 11/22/11
f 9/12/12 8/11/12 17/23/12 18/24/12
f 6/14/13 5/4/13 14/25/13 15/26/13
f 3/16/14 2/8/14 11/22/14 12/27/14
f 64/28/15 9/12/15 18/24/15
f 7/19/16 6/14/16 15/26/16 16/29/16
f 4/3/17 3/16/17 12/27/17 13/30/17
f 1/7/18 83/31/18 10/21/18
f 8/11/19 7/19/19 16/29/19 17/23/19
f 5/4/20 4/3/20 13/30/20 14/25/20
f 17/23/21 16/29/21 25/32/21 26/33/21
f 14/25/22 13/30/22 22/34/22 23/35/22
f 11/22/23 10/21/23 19/36/23 20/37/23
f 18/24/24 17/23/24 26/33/24 27/38/24
f 15/26/25 14/25/25 23/35/25 24/39/25
f 12/27/26 11/22/26 20/37/26 21/40/26
f 64/41/27 18/24/27 27/38/27
f 16/29/28 15/26/28 24/39/28 25/32/28
f 13/30/29 12/27/29 21/40/29 22/34/29
f 10/21/30 83/42/30 19/36/30
f 22/34/31 21/40/31 30/43/31 31/44/31
f 19/36/32 83/45/32 28/46/32
f 26/33/33 25/32/33 34/47/33 35/48/33
f 23/35/34 22/34/34 31/44/34 32/49/34
f 20/37/35 19/36/35 28/46/35 29/50/35
f 27/38/36 26/33/36 35/48/36 36/51/36
f 24/39/37 23/35/37 32/49/37 33/52/37
f 21/40/38 20/37/38 29/50/38 30/43/38
f 64/53/39 27/38/39 36/51/39
f 25/32/40 24/39/40 33/52/40 34/47/40
f 34/47/41 33/52/41 42/54/41 43/55/41
f 31/44/42 30/43/42 39/56/42 40/57/42
f 28/46/43 83/58/43 37/59/43
f 35/48/44 34/47/44 43/55/44 44/60/44
f 32/49/45 31/44/45 40/57/45 41/61/45
f 29/50/46 28/46/46 37/59/46 38/62/46
f 36/51/47 35/48/47 44/60/47 45/63/47
f 33/52/48 32/49/48 41/61/48 42/54/48
f 30/43/49 29/50/49 38/62/49 39/56/49
f 64/64/50 36/51/50 45/63/50
f 39/56/51 38/62/51 47/65/51 48/66/51
f 64/67/52 45/63/52 54/68/52
f 43/55/53 42/54/53 51/69/53 52/70/53
f 40/57/54 39/56/54 48/66/54 49/71/54
f 37/59/55 83/72/55 46/73/55
f 44/60/56 43/55/56 52/70/56 53/74/56
f 41/61/57 40/57/57 49/71/57 50/75/57
f 38/62/58 37/59/58 46/73/58 47/65/58
f 45/63/59 44/60/59 53/74/59 54/68/59
f 42/54/60 41/61/60 50/75/60 51/69/60
f 54/68/61 53/74/61 62/76/61 63/77/61
f 51/69/62 50/75/62 59/78/62 60/79/62
f 48/66/63 47/65/63 56/80/63 57/81/63
f 64/82/64 54/68/64 63/77/64
f 52/70/65 51/69/65 60/79/65 61/83/65
f 49/71/66 48/66/66 57/81/66 58/84/66
f 46/73/67 83/85/67 55/86/67
f 53/74/68 52/70/68 61/83/68 62/76/68
f 50/75/69 49/71/69 58/84/69 59/78/69
f 47/65/70 46/73/70 55/86/70 56/80/70
f 59/87/71 58/88/71 68/89/71 69/90/71
f 56/91/72 55/92/72 65/93/72 66/94/72
f 63/95/73 62/96/73 72/97/73 73/98/73
f 60/99/74 59/87/74 69/90/74 70/100/74
f 57/101/75 56/91/75 66/94/75 67/102/75
f 64/103/76 63/95/76 73/98/76
f 61/104/77 60/99/77 70/100/77 71/105/77
f 58/88/78 57/101/78 67/102/78 68/89/78
f 55/92/79 83/106/79 65/93/79
f 62/96/80 61/104/80 71/105/80 72/97/80
f 65/93/81 83/107/81 74/108/81
f 72/97/82 71/105/82 80/109/82 81/110/82
f 69/90/83 68/89/83 77/111/83 78/112/83
f 66/94/84 65/93/84 74/108/84 75/113/84
f 73/98/85 72/97/85 81/110/85 82/114/85
f 70/100/86 69/90/86 78/112/86 79/115/86
f 67/102/87 66/94/87 75/113/87 76/116/87
f 64/117/88 73/98/88 82/114/88
f 71/105/89 70/100/89 79/115/89 80/109/89
f 68/89/90 67/102/90 76/116/90 77/111/90
f 77/111/91 76/116/91 86/15/91 87/2/91
f 74/108/92 83/118/92 84/6/92
f 81/110/93 80/109/93 90/18/93 91/10/93
f 78/112/94 77/111/94 87/2/94 88/1/94
f 75/113/95 74/108/95 84/6/95 85/5/95
f 82/114/96 81/110/96 91/10/96 92/9/96
f 79/115/97 78/112/97 88/1/97 89/13/97
f 76/116/98 75/113/98 85/5/98 86/15/98
f 64/119/99 82/114/99 92/9/99
f 80/109/100 79/115/100 89/13/100 90/18/100
