# Blender 4.4.3
# www.blender.org
mtllib black_hole.mtl
o BlackHole
v 1.631661 0.000000 0.942040
v 1.332245 0.000000 1.332245
v 0.942040 0.000000 1.631661
v 0.487636 0.000000 1.819881
v 0.000000 0.000000 1.884080
v -0.487636 0.000000 1.819881
v -0.942040 0.000000 1.631661
v -1.224453 0.000000 1.224453
v -1.384068 0.000000 0.799092
v -1.424756 0.000000 0.381762
v -1.361339 0.000000 0.000000
v -1.213612 0.000000 -0.325186
v -1.004238 0.000000 -0.579797
v -0.756764 0.000000 -0.756764
v -0.493873 0.000000 -0.855413
v -0.235945 0.000000 -0.880560
v 0.000000 0.000000 -0.841366
v 0.200979 0.000000 -0.750064
v 0.358339 0.000000 -0.620662
v 0.467713 0.000000 -0.467713
v 0.528682 0.000000 -0.305235
v 0.544224 0.000000 -0.145824
v 0.520000 0.000000 0.000000
v 1.224453 0.000000 1.224453
v 0.799092 0.000000 1.384068
v 0.381762 0.000000 1.424756
v 0.000000 0.000000 1.361339
v -0.325186 0.000000 1.213612
v -0.579797 0.000000 1.004238
v -0.756764 0.000000 0.756764
v -0.855413 0.000000 0.493873
v -0.880560 0.000000 0.235945
v -0.841366 0.000000 0.000000
v -0.750064 0.000000 -0.200979
v -0.620662 0.000000 -0.358339
v -0.467713 0.000000 -0.467713
v -0.305235 0.000000 -0.528682
v -0.145824 0.000000 -0.544224
v -0.000000 0.000000 -0.520000
v 0.430286 0.000000 -0.312617
v 0.520000 0.000000 0.000000
v 0.942040 0.000000 -1.631661
v 1.332245 0.000000 -1.332245
v 1.631661 0.000000 -0.942040
v 1.819881 0.000000 -0.487636
v 1.884080 0.000000 -0.000000
v 1.819881 0.000000 0.487636
v 1.631661 0.000000 0.942040
v 1.224453 0.000000 1.224453
v 0.799092 0.000000 1.384068
v 0.381762 0.000000 1.424756
v 0.000000 0.000000 1.361339
v -0.325186 0.000000 1.213612
v -0.579797 0.000000 1.004238
v -0.756764 0.000000 0.756764
v -0.855413 0.000000 0.493873
v -0.880560 0.000000 0.235945
v -0.841366 0.000000 0.000000
v -0.750064 0.000000 -0.200979
v -0.620662 0.000000 -0.358339
v -0.467713 0.000000 -0.467713
v -0.305235 0.000000 -0.528682
v -0.145824 0.000000 -0.544224
v -0.000000 0.000000 -0.520000
v 1.224453 0.000000 -1.224453
v 1.384068 0.000000 -0.799092
v 1.424756 0.000000 -0.381762
v 1.361339 0.000000 -0.000000
v 1.213612 0.000000 0.325186
v 1.004238 0.000000 0.579797
v 0.756764 0.000000 0.756764
v 0.493873 0.000000 0.855413
v 0.235945 0.000000 0.880560
v 0.000000 0.000000 0.841366
v -0.200979 0.000000 0.750064
v -0.358339 0.000000 0.620662
v -0.467713 0.000000 0.467713
v -0.528682 0.000000 0.305235
v -0.544224 0.000000 0.145824
v -0.520000 0.000000 0.000000
v -0.312617 0.000000 -0.430286
v -0.000000 0.000000 -0.520000
v -1.631661 0.000000 -0.942040
v -1.332246 0.000000 -1.332245
v -0.942040 0.000000 -1.631661
v -0.487636 0.000000 -1.819881
v -0.000000 0.000000 -1.884080
v 0.487636 0.000000 -1.819881
v 0.942040 0.000000 -1.631661
v 1.224453 0.000000 -1.224453
v 1.384068 0.000000 -0.799092
v 1.424756 0.000000 -0.381762
v 1.361339 0.000000 -0.000000
v 1.213612 0.000000 0.325186
v 1.004238 0.000000 0.579797
v 0.756764 0.000000 0.756764
v 0.493873 0.000000 0.855413
v 0.235945 0.000000 0.880560
v 0.000000 0.000000 0.841366
v -0.200979 0.000000 0.750064
v -0.358339 0.000000 0.620662
v -0.467713 0.000000 0.467713
v -0.528682 0.000000 0.305235
v -0.544224 0.000000 0.145824
v -0.520000 0.000000 0.000000
v -1.224453 0.000000 -1.224453
v -0.799092 0.000000 -1.384068
v -0.381762 0.000000 -1.424756
v -0.000000 0.000000 -1.361339
v 0.325186 0.000000 -1.213612
v 0.579797 0.000000 -1.004238
v 0.756764 0.000000 -0.756764
v 0.855413 0.000000 -0.493873
v 0.880560 0.000000 -0.235945
v 0.841366 0.000000 -0.000000
v 0.750064 0.000000 0.200979
v 0.620662 0.000000 0.358339
v 0.467713 0.000000 0.467713
v 0.305235 0.000000 0.528682
v 0.145824 0.000000 0.544224
v 0.000000 0.000000 0.520000
v -0.430286 0.000000 0.312617
v -0.520000 0.000000 0.000000
v -0.942040 0.000000 1.631661
v -1.332245 0.000000 1.332246
v -1.631661 0.000000 0.942040
v -1.819881 0.000000 0.487636
v -1.884080 0.000000 0.000000
v -1.819881 0.000000 -0.487635
v -1.631661 0.000000 -0.942040
v -1.224453 0.000000 -1.224453
v -0.799092 0.000000 -1.384068
v -0.381762 0.000000 -1.424756
v -0.000000 0.000000 -1.361339
v 0.325186 0.000000 -1.213612
v 0.579797 0.000000 -1.004238
v 0.756764 0.000000 -0.756764
v 0.855413 0.000000 -0.493873
v 0.880560 0.000000 -0.235945
v 0.841366 0.000000 -0.000000
v 0.750064 0.000000 0.200979
v 0.620662 0.000000 0.358339
v 0.467713 0.000000 0.467713
v 0.305235 0.000000 0.528682
v 0.145824 0.000000 0.544224
v 0.000000 0.000000 0.520000
v -1.224453 0.000000 1.224453
v -1.384068 0.000000 0.799092
v -1.424756 0.000000 0.381762
v -1.361339 0.000000 0.000000
v -1.213612 0.000000 -0.325186
v -1.004238 0.000000 -0.579797
v -0.756764 0.000000 -0.756764
v -0.493873 0.000000 -0.855413
v -0.235945 0.000000 -0.880560
v -0.000000 0.000000 -0.841366
v 0.200979 0.000000 -0.750064
v 0.358339 0.000000 -0.620662
v 0.467713 0.000000 -0.467713
v 0.528682 0.000000 -0.305235
v 0.544224 0.000000 -0.145824
v 0.520000 0.000000 -0.000000
v 0.312617 0.000000 0.430286
v 0.000000 0.000000 0.520000
v 0.000000 0.594646 0.000000
v 0.531866 0.265935 0.000000
v 0.164351 0.265935 -0.505830
v -0.430286 0.265935 -0.312617
v -0.430286 0.265935 0.312617
v 0.164351 0.265935 0.505830
v 0.430286 -0.265935 -0.312617
v -0.164351 -0.265935 -0.505830
v -0.531866 -0.265935 0.000000
v -0.164351 -0.265935 0.505830
v 0.430286 -0.265935 0.312617
v 0.000000 -0.594646 0.000000
vn -0.0000 -1.0000 -0.0000
vn 0.4911 0.7947 -0.3568
vn -0.1876 0.7947 -0.5774
vn -0.6071 0.7947 -0.0000
vn -0.1876 0.7947 0.5774
vn 0.4911 0.7947 0.3568
vn 0.7946 0.1876 -0.5774
vn -0.3035 0.1876 -0.9342
vn -0.9822 0.1876 -0.0000
vn -0.3035 0.1876 0.9342
vn 0.7946 0.1876 0.5774
vn 0.3035 -0.1876 -0.9342
vn -0.7946 -0.1876 -0.5774
vn -0.7946 -0.1876 0.5774
vn 0.3035 -0.1876 0.9342
vn 0.9822 -0.1876 -0.0000
vn 0.1876 -0.7947 -0.5774
vn -0.4911 -0.7947 -0.3568
vn -0.4911 -0.7947 0.3568
vn 0.6071 -0.7947 -0.0000
vn 0.1876 -0.7947 0.5774
vt 0.000000 0.000000
vt 0.363637 0.314921
vt 0.545455 0.314921
vt 0.454546 0.472382
vt 0.727273 0.314921
vt 0.636364 0.472382
vt 0.909091 0.314921
vt 0.818182 0.472382
vt 0.000000 0.314921
vt 0.181819 0.314921
vt 0.090910 0.472382
vt 0.272728 0.472382
vt 0.454546 0.157461
vt 0.636364 0.157461
vt 0.818182 0.157461
vt 0.090910 0.157461
vt 0.272728 0.157461
vt 1.000000 0.157461
vt 0.545455 0.000000
vt 0.727273 0.000000
vt 0.909091 0.000000
vt 0.363637 0.000000
vt 0.181819 0.000000
s 0
f 2/1/1 3/1/1 4/1/1 5/1/1 6/1/1 7/1/1 8/1/1 9/1/1 10/1/1 11/1/1 12/1/1 13/1/1 14/1/1 15/1/1 16/1/1 17/1/1 18/1/1 19/1/1 20/1/1 21/1/1 22/1/1 23/1/1 41/1/1 40/1/1 39/1/1 38/1/1 37/1/1 36/1/1 35/1/1 34/1/1 33/1/1 32/1/1 31/1/1 30/1/1 29/1/1 28/1/1 27/1/1 26/1/1 25/1/1 24/1/1 1/1/1
f 43/1/1 44/1/1 45/1/1 46/1/1 47/1/1 48/1/1 49/1/1 50/1/1 51/1/1 52/1/1 53/1/1 54/1/1 55/1/1 56/1/1 57/1/1 58/1/1 59/1/1 60/1/1 61/1/1 62/1/1 63/1/1 64/1/1 82/1/1 81/1/1 80/1/1 79/1/1 78/1/1 77/1/1 76/1/1 75/1/1 74/1/1 73/1/1 72/1/1 71/1/1 70/1/1 69/1/1 68/1/1 67/1/1 66/1/1 65/1/1 42/1/1
f 84/1/1 85/1/1 86/1/1 87/1/1 88/1/1 89/1/1 90/1/1 91/1/1 92/1/1 93/1/1 94/1/1 95/1/1 96/1/1 97/1/1 98/1/1 99/1/1 100/1/1 101/1/1 102/1/1 103/1/1 104/1/1 105/1/1 123/1/1 122/1/1 121/1/1 120/1/1 119/1/1 118/1/1 117/1/1 116/1/1 115/1/1 114/1/1 113/1/1 112/1/1 111/1/1 110/1/1 109/1/1 108/1/1 107/1/1 106/1/1 83/1/1
f 125/1/1 126/1/1 127/1/1 128/1/1 129/1/1 130/1/1 131/1/1 132/1/1 133/1/1 134/1/1 135/1/1 136/1/1 137/1/1 138/1/1 139/1/1 140/1/1 141/1/1 142/1/1 143/1/1 144/1/1 145/1/1 146/1/1 164/1/1 163/1/1 162/1/1 161/1/1 160/1/1 159/1/1 158/1/1 157/1/1 156/1/1 155/1/1 154/1/1 153/1/1 152/1/1 151/1/1 150/1/1 149/1/1 148/1/1 147/1/1 124/1/1
f 166/2/2 167/3/2 165/4/2
f 167/3/3 168/5/3 165/6/3
f 168/5/4 169/7/4 165/8/4
f 169/9/5 170/10/5 165/11/5
f 170/10/6 166/2/6 165/12/6
f 171/13/7 167/3/7 166/2/7
f 172/14/8 168/5/8 167/3/8
f 173/15/9 169/7/9 168/5/9
f 174/16/10 170/10/10 169/9/10
f 175/17/11 166/2/11 170/10/11
f 171/13/12 172/14/12 167/3/12
f 172/14/13 173/15/13 168/5/13
f 173/15/14 174/18/14 169/7/14
f 174/16/15 175/17/15 170/10/15
f 175/17/16 171/13/16 166/2/16
f 176/19/17 172/14/17 171/13/17
f 176/20/18 173/15/18 172/14/18
f 176/21/19 174/18/19 173/15/19
f 175/17/20 176/22/20 171/13/20
f 176/23/21 175/17/21 174/16/21
