# Blender 4.4.3
# www.blender.org
mtllib dysonSwarm.mtl
o DysonSwarm
v -0.000000 0.500000 -0.866025
v 0.525720 0.850263 -0.025500
v 0.850640 -0.015749 -0.525492
v -0.000000 -0.550987 -0.834512
v -0.850640 -0.015749 -0.525492
v -0.525720 0.850263 -0.025500
v 0.850640 0.015749 0.525492
v 0.525720 -0.850263 0.025500
v -0.525720 -0.850263 0.025500
v -0.850640 0.015749 0.525492
v 0.000000 0.550987 0.834512
v 0.000000 -0.500000 0.866025
v 0.607600 0.131608 -0.622787
v 0.243040 0.352643 -0.768730
v 0.150206 0.600075 -0.625875
v 0.375514 0.750188 -0.265650
v 0.618554 0.602831 -0.168355
v 0.757806 0.231683 -0.382637
v -0.225309 0.850263 -0.025500
v 0.225309 0.850263 -0.025500
v -0.150206 0.600075 -0.625875
v -0.375514 0.750188 -0.265650
v -0.000000 -0.250705 -0.843516
v -0.000000 0.199718 -0.857022
v 0.607600 -0.168674 -0.613784
v 0.243040 -0.398062 -0.746221
v -0.607600 0.131608 -0.622787
v -0.243040 0.352643 -0.768730
v -0.243040 -0.398062 -0.746221
v -0.607600 -0.168674 -0.613783
v -0.757806 0.231683 -0.382637
v -0.618554 0.602831 -0.168355
v 0.150206 0.636495 0.588794
v 0.375514 0.764756 0.220218
v -0.375514 0.764756 0.220218
v -0.150206 0.636495 0.588794
v 0.850640 0.006750 0.225211
v 0.850640 -0.006750 -0.225211
v 0.618554 0.611831 0.131927
v 0.757806 0.254182 0.368066
v 0.375514 -0.764756 -0.220218
v 0.150206 -0.636495 -0.588794
v 0.757806 -0.254182 -0.368066
v 0.618554 -0.611831 -0.131927
v -0.618554 -0.611831 -0.131927
v -0.757806 -0.254182 -0.368066
v -0.150206 -0.636495 -0.588794
v -0.375514 -0.764756 -0.220218
v -0.757806 0.254182 0.368066
v -0.618554 0.611831 0.131927
v -0.850640 -0.006750 -0.225211
v -0.850640 0.006750 0.225211
v 0.243040 0.398062 0.746221
v 0.607600 0.168674 0.613783
v 0.757806 -0.231683 0.382637
v 0.618554 -0.602831 0.168355
v 0.225309 -0.850263 0.025500
v -0.225309 -0.850263 0.025500
v -0.618554 -0.602831 0.168355
v -0.757806 -0.231683 0.382637
v -0.607600 0.168674 0.613784
v -0.243040 0.398062 0.746221
v 0.243040 -0.352643 0.768730
v 0.607600 -0.131608 0.622787
v 0.000000 0.250705 0.843516
v 0.000000 -0.199718 0.857022
v 0.150206 -0.600075 0.625875
v 0.375514 -0.750188 0.265650
v -0.150206 -0.600075 0.625875
v -0.375514 -0.750188 0.265650
v -0.243040 -0.352643 0.768730
v -0.607600 -0.131608 0.622787
vn -0.3568 -0.0280 -0.9338
vn 0.5774 -0.5598 0.5944
vn -0.9342 -0.3567 0.0107
vn 0.3568 -0.0280 -0.9338
vn 0.5774 0.5944 0.5598
vn -0.3568 0.0280 0.9338
vn -0.3568 0.0280 0.9337
vn -0.5774 0.5598 -0.5944
vn -0.5774 -0.5598 0.5944
vn -0.0000 -0.9231 0.3847
vn -0.0000 0.9444 0.3287
vn 0.3568 0.0280 0.9338
vn 0.5774 0.5598 -0.5944
vn -0.0000 -0.9444 -0.3287
vn -0.5774 0.5944 0.5598
vn 0.9342 -0.3567 0.0107
vn -0.9342 0.3567 -0.0107
vn -0.5774 -0.5944 -0.5598
vn 0.5774 -0.5944 -0.5598
vn 0.9342 0.3567 -0.0107
vn 0.3568 0.0280 0.9337
vn 0.3568 -0.0280 -0.9337
vn -0.0000 0.9231 -0.3847
vn -0.0000 -0.5000 0.8660
vn -0.5257 -0.8503 0.0255
vn -0.8507 0.0158 0.5255
vn -0.8507 -0.0158 -0.5255
vn -0.5257 0.8503 -0.0255
vn -0.0000 0.5510 0.8345
vn -0.0000 0.5000 -0.8660
vn 0.5257 0.8503 -0.0255
vn 0.8507 0.0158 0.5255
vn 0.5257 -0.8503 0.0255
vn -0.0000 -0.5510 -0.8345
vn 0.8507 -0.0158 -0.5255
vt 0.701299 0.044989
vt 0.727273 0.000000
vt 0.753247 0.044989
vt 0.025974 0.359910
vt 0.000000 0.314921
vt 0.051948 0.314921
vt 0.090910 0.472382
vt 0.064936 0.427393
vt 0.116884 0.427393
vt 0.610390 0.202450
vt 0.636364 0.157461
vt 0.662338 0.202450
vt 1.000000 0.157461
vt 0.948052 0.157461
vt 0.974026 0.112472
vt 0.363637 0.314921
vt 0.311689 0.314921
vt 0.337663 0.269932
vt 0.415585 0.314921
vt 0.389611 0.359910
vt 0.454546 0.472382
vt 0.428572 0.427393
vt 0.480520 0.427393
vt 0.545455 0.314921
vt 0.519481 0.359910
vt 0.493507 0.314921
vt 0.233767 0.314921
vt 0.181819 0.314921
vt 0.207793 0.269932
vt 0.584416 0.157461
vt 0.610390 0.112472
vt 0.727273 0.314921
vt 0.701299 0.359910
vt 0.675325 0.314921
vt 0.909091 0.314921
vt 0.883117 0.359910
vt 0.857143 0.314921
vt 0.454546 0.157461
vt 0.428572 0.202450
vt 0.402598 0.157461
vt 0.155845 0.359910
vt 0.129871 0.314921
vt 0.337663 0.359910
vt 0.090910 0.157461
vt 0.116884 0.112472
vt 0.142858 0.157461
vt 0.779221 0.314921
vt 0.753247 0.359910
vt 0.792208 0.202450
vt 0.818182 0.157461
vt 0.844156 0.202450
vt 0.272728 0.157461
vt 0.220780 0.157461
vt 0.246754 0.112472
vt 0.480520 0.202450
vt 0.519481 0.269932
vt 0.155845 0.044989
vt 0.181819 0.000000
vt 0.207793 0.044989
vt 0.701299 0.269932
vt 0.753247 0.269932
vt 0.883117 0.269932
vt 0.688312 0.157461
vt 0.662338 0.112472
vt 0.389611 0.269932
vt 0.597403 0.314921
vt 0.571429 0.269932
vt 0.155845 0.269932
vt 0.246754 0.202450
vt 0.298702 0.202450
vt 0.207793 0.359910
vt 0.766234 0.157461
vt 0.870130 0.157461
vt 0.935065 0.269932
vt 0.571429 0.359910
vt 0.974026 0.202450
vt 0.116884 0.202450
vt 0.818182 0.472382
vt 0.792208 0.427393
vt 0.844156 0.427393
vt 0.324676 0.157461
vt 0.662338 0.427393
vt 0.636364 0.472382
vt 0.610390 0.427393
vt 0.844156 0.112472
vt 0.519481 0.044989
vt 0.545455 0.000000
vt 0.571429 0.044989
vt 0.272728 0.472382
vt 0.246754 0.427393
vt 0.298702 0.427393
vt 0.480520 0.112472
vt 0.506494 0.157461
vt 0.792208 0.112472
vt 0.909091 0.000000
vt 0.935065 0.044989
vt 0.883117 0.044989
vt 0.025974 0.269932
vt 0.064936 0.202450
vt 0.298702 0.112472
vt 0.363637 0.000000
vt 0.389611 0.044989
vt 0.337663 0.044989
vt 0.428572 0.112472
s 0
f 28/1/1 1/2/1 24/3/1
f 68/4/2 8/5/2 56/6/2
f 12/7/2 67/8/2 63/9/2
f 51/10/3 5/11/3 46/12/3
f 3/13/4 25/14/4 13/15/4
f 11/16/5 53/17/5 33/18/5
f 11/16/6 62/19/6 65/20/6
f 12/21/7 66/22/7 71/23/7
f 10/24/7 72/25/7 61/26/7
f 54/27/5 7/28/5 40/29/5
f 5/11/8 31/30/8 27/31/8
f 9/32/9 70/33/9 59/34/9
f 8/35/10 68/36/10 57/37/10
f 6/38/11 35/39/11 19/40/11
f 7/28/2 64/41/2 55/42/2
f 11/16/12 65/43/12 53/17/12
f 3/44/13 13/45/13 18/46/13
f 9/32/10 58/47/10 70/48/10
f 47/49/14 4/50/14 42/51/14
f 2/52/13 17/53/13 16/54/13
f 6/38/15 50/55/15 35/39/15
f 10/24/15 61/26/15 49/56/15
f 14/57/13 1/58/13 15/59/13
f 9/32/3 59/34/3 45/60/3
f 58/47/14 9/32/14 48/61/14
f 8/35/14 57/37/14 41/62/14
f 30/63/1 5/11/1 27/64/1
f 62/19/15 11/16/15 36/65/15
f 60/66/3 10/24/3 52/67/3
f 7/28/16 55/42/16 37/68/16
f 39/69/5 2/52/5 34/70/5
f 52/67/17 10/24/17 49/56/17
f 7/28/12 54/27/12 64/71/12
f 9/32/18 45/60/18 48/61/18
f 46/12/18 5/11/18 30/63/18
f 4/50/18 47/49/18 29/72/18
f 42/51/19 4/50/19 26/73/19
f 8/35/19 41/62/19 44/74/19
f 72/75/9 10/24/9 60/66/9
f 3/13/19 43/76/19 25/14/19
f 40/29/20 7/28/20 37/68/20
f 3/44/20 18/46/20 38/77/20
f 2/52/20 39/69/20 17/53/20
f 36/65/11 11/16/11 33/18/11
f 12/78/10 69/79/10 67/80/10
f 2/52/11 20/81/11 34/70/11
f 69/82/9 12/83/9 71/84/9
f 26/73/4 4/50/4 23/85/4
f 21/86/8 1/87/8 28/88/8
f 12/89/21 63/90/21 66/91/21
f 6/38/8 22/92/8 32/93/8
f 4/50/1 29/72/1 23/94/1
f 5/11/17 51/10/17 31/30/17
f 1/95/22 14/96/22 24/97/22
f 56/6/16 8/5/16 44/98/16
f 3/44/16 38/77/16 43/99/16
f 50/55/17 6/38/17 32/93/17
f 2/52/23 16/100/23 20/81/23
f 1/101/23 21/102/23 15/103/23
f 6/38/23 19/40/23 22/104/23
f 21/102/24 28/1/24 24/97/24 14/57/24 15/103/24
f 39/69/25 34/70/25 20/81/25 16/54/25 17/53/25
f 43/76/26 38/77/26 18/46/26 13/45/26 25/14/26
f 64/71/27 54/27/27 40/29/27 37/68/27 55/42/27
f 68/4/28 56/6/28 44/98/28 41/62/28 57/37/28
f 47/49/29 42/51/29 26/73/29 23/85/29 29/72/29
f 71/84/30 66/22/30 63/90/30 67/8/30 69/79/30
f 70/48/31 58/47/31 48/61/31 45/60/31 59/34/31
f 51/10/32 46/12/32 30/63/32 27/64/32 31/30/32
f 35/39/33 50/55/33 32/93/33 22/92/33 19/40/33
f 65/43/34 62/19/34 36/65/34 33/18/34 53/17/34
f 72/75/35 60/66/35 52/67/35 49/56/35 61/26/35
