# Blender 4.4.3
# www.blender.org
mtllib flat_land.mtl
o FlatLand
v -0.759644 1.536819 0.707208
v -0.759644 1.536819 -0.707208
v -0.982243 1.151266 0.707208
v -0.982243 1.151266 -0.707208
v -0.537045 1.151266 0.707208
v -0.537046 1.151266 -0.707208
v -0.759644 1.794714 0.000000
v -1.205587 1.022319 0.000000
v -0.313702 1.022319 -0.000000
v -1.710746 0.110538 0.707208
v -1.710746 0.110538 -0.707208
v -1.488147 -0.275014 0.707208
v -1.488147 -0.275014 -0.707208
v -1.265549 0.110538 0.707208
v -1.265549 0.110538 -0.707208
v -1.934090 0.239486 0.000000
v -1.488147 -0.532909 0.000000
v -1.042205 0.239485 0.000000
v -0.951101 -1.426281 0.707208
v -0.951102 -1.426281 -0.707208
v -0.505904 -1.426281 0.707208
v -0.505904 -1.426281 -0.707208
v -0.728503 -1.040728 0.707208
v -0.728503 -1.040728 -0.707208
v -1.174446 -1.555228 0.000000
v -0.282560 -1.555228 0.000000
v -0.728503 -0.782833 0.000000
v 0.759645 -1.536818 0.707208
v 0.759645 -1.536818 -0.707208
v 0.982243 -1.151266 0.707208
v 0.982243 -1.151266 -0.707208
v 0.537046 -1.151266 0.707208
v 0.537046 -1.151266 -0.707208
v 0.759645 -1.794714 -0.000000
v 1.205587 -1.022318 -0.000000
v 0.313702 -1.022319 -0.000000
v 1.710746 -0.110538 0.707208
v 1.710746 -0.110538 -0.707208
v 1.488148 0.275015 0.707208
v 1.488147 0.275015 -0.707208
v 1.265549 -0.110538 0.707208
v 1.265549 -0.110538 -0.707208
v 1.934090 -0.239485 -0.000000
v 1.488147 0.532910 -0.000000
v 1.042205 -0.239485 -0.000000
v 0.951102 1.426281 0.707208
v 0.951102 1.426281 -0.707208
v 0.505904 1.426281 0.707208
v 0.505904 1.426281 -0.707208
v 0.728503 1.040728 0.707208
v 0.728503 1.040728 -0.707208
v 1.174445 1.555228 -0.000000
v 0.282561 1.555228 -0.000000
v 0.728503 0.782833 -0.000000
v 1.473205 -0.000000 -0.311857
v 1.473205 0.000000 0.311856
v 0.736603 -1.275833 -0.311857
v 0.736603 -1.275833 0.311857
v -0.736603 -1.275833 -0.311857
v -0.736603 -1.275833 0.311857
v -1.473205 -0.000000 -0.311856
v -1.473205 0.000000 0.311857
v -0.736602 1.275833 -0.311857
v -0.736602 1.275833 0.311857
v 0.736603 1.275833 -0.311857
v 0.736603 1.275833 0.311856
v 0.000000 0.119249 1.520074
v -0.000000 0.119248 -1.520074
v -0.103272 0.059624 1.520074
v -0.103272 0.059624 -1.520074
v -0.103272 -0.059624 1.520074
v -0.103272 -0.059624 -1.520074
v 0.000000 -0.119248 1.520074
v -0.000000 -0.119249 -1.520074
v 0.103272 -0.059624 1.520074
v 0.103272 -0.059624 -1.520074
v 0.103272 0.059624 1.520074
v 0.103272 0.059624 -1.520074
v 0.000000 0.545409 -0.000000
v -0.472338 0.272704 -0.000000
v -0.472338 -0.272704 0.000000
v 0.000000 -0.545409 0.000000
v 0.472338 -0.272704 -0.000000
v 0.472338 0.272704 -0.000000
vn -0.8520 0.4919 -0.1794
vn -0.0000 -0.9838 -0.1794
vn -0.0000 -0.0000 -1.0000
vn 0.8520 0.4919 -0.1794
vn -0.0000 -0.0000 1.0000
vn 0.8520 0.4919 0.1794
vn -0.0000 -0.9838 0.1794
vn -0.8520 0.4919 0.1794
vn -0.8520 -0.4919 -0.1794
vn 0.8520 -0.4919 -0.1794
vn -0.0000 0.9838 -0.1794
vn -0.0000 0.9838 0.1794
vn 0.8520 -0.4919 0.1794
vn -0.8520 -0.4919 0.1794
vn 0.8660 -0.5000 -0.0000
vn -0.0000 -1.0000 -0.0000
vn -0.8660 -0.5000 -0.0000
vn -0.8660 0.5000 -0.0000
vn -0.0000 1.0000 -0.0000
vn 0.8660 0.5000 -0.0000
vn -0.4859 0.8416 -0.2359
vn -0.9718 -0.0000 -0.2359
vn -0.4859 -0.8416 -0.2359
vn 0.4859 -0.8416 -0.2359
vn 0.9718 -0.0000 -0.2359
vn 0.4859 0.8416 -0.2359
vn 0.4859 0.8416 0.2359
vn 0.9718 -0.0000 0.2359
vn 0.4859 -0.8416 0.2359
vn -0.4859 -0.8416 0.2359
vn -0.9718 -0.0000 0.2359
vn -0.4859 0.8416 0.2359
vt 1.000000 0.750000
vt 1.000000 1.000000
vt 0.666667 1.000000
vt 0.666667 0.750000
vt 0.333333 1.000000
vt 0.333333 0.750000
vt 0.457846 0.130000
vt 0.250000 0.490000
vt 0.042154 0.130000
vt -0.000000 1.000000
vt -0.000000 0.750000
vt 0.750000 0.490000
vt 0.957846 0.130000
vt 0.542154 0.130000
vt 0.333333 0.500000
vt -0.000000 0.500000
vt 0.666667 0.500000
vt 1.000000 0.500000
vt 0.833333 1.000000
vt 0.833333 0.500000
vt 0.500000 1.000000
vt 0.500000 0.500000
vt 0.333333 1.000000
vt 0.333333 0.500000
vt 0.457846 0.370000
vt 0.042154 0.370000
vt 0.250000 0.010000
vt 0.166667 1.000000
vt 0.166667 0.500000
vt -0.000000 1.000000
vt -0.000000 0.500000
vt 0.957846 0.370000
vt 0.750000 0.010000
vt 0.542154 0.370000
vt 0.833333 0.750000
vt 0.500000 0.750000
vt 0.333333 0.750000
vt 0.166667 0.750000
vt -0.000000 0.750000
s 0
f 7/1/1 2/2/1 4/3/1 8/4/1
f 8/4/2 4/3/2 6/5/2 9/6/2
f 4/7/3 2/8/3 6/9/3
f 9/6/4 6/5/4 2/10/4 7/11/4
f 1/12/5 3/13/5 5/14/5
f 5/15/6 9/6/6 7/11/6 1/16/6
f 3/17/7 8/4/7 9/6/7 5/15/7
f 1/18/8 7/1/8 8/4/8 3/17/8
f 16/1/9 11/2/9 13/3/9 17/4/9
f 17/4/10 13/3/10 15/5/10 18/6/10
f 13/7/3 11/8/3 15/9/3
f 18/6/11 15/5/11 11/10/11 16/11/11
f 10/12/5 12/13/5 14/14/5
f 14/15/12 18/6/12 16/11/12 10/16/12
f 12/17/13 17/4/13 18/6/13 14/15/13
f 10/18/14 16/1/14 17/4/14 12/17/14
f 25/1/2 20/2/2 22/3/2 26/4/2
f 26/4/4 22/3/4 24/5/4 27/6/4
f 22/7/3 20/8/3 24/9/3
f 27/6/1 24/5/1 20/10/1 25/11/1
f 19/12/5 21/13/5 23/14/5
f 23/15/8 27/6/8 25/11/8 19/16/8
f 21/17/6 26/4/6 27/6/6 23/15/6
f 19/18/7 25/1/7 26/4/7 21/17/7
f 34/1/10 29/2/10 31/3/10 35/4/10
f 35/4/11 31/3/11 33/5/11 36/6/11
f 31/7/3 29/8/3 33/9/3
f 36/6/9 33/5/9 29/10/9 34/11/9
f 28/12/5 30/13/5 32/14/5
f 32/15/14 36/6/14 34/11/14 28/16/14
f 30/17/12 35/4/12 36/6/12 32/15/12
f 28/18/13 34/1/13 35/4/13 30/17/13
f 43/1/4 38/2/4 40/3/4 44/4/4
f 44/4/1 40/3/1 42/5/1 45/6/1
f 40/7/3 38/8/3 42/9/3
f 45/6/2 42/5/2 38/10/2 43/11/2
f 37/12/5 39/13/5 41/14/5
f 41/15/7 45/6/7 43/11/7 37/16/7
f 39/17/8 44/4/8 45/6/8 41/15/8
f 37/18/6 43/1/6 44/4/6 39/17/6
f 52/1/11 47/2/11 49/3/11 53/4/11
f 53/4/9 49/3/9 51/5/9 54/6/9
f 49/7/3 47/8/3 51/9/3
f 54/6/10 51/5/10 47/10/10 52/11/10
f 46/12/5 48/13/5 50/14/5
f 50/15/13 54/6/13 52/11/13 46/16/13
f 48/17/14 53/4/14 54/6/14 50/15/14
f 46/18/12 52/1/12 53/4/12 48/17/12
f 55/18/15 56/2/15 58/19/15 57/20/15
f 57/20/16 58/19/16 60/3/16 59/17/16
f 59/17/17 60/3/17 62/21/17 61/22/17
f 61/22/18 62/21/18 64/23/18 63/24/18
f 58/25/5 56/8/5 66/26/5 64/9/5 62/27/5 60/7/5
f 63/24/19 64/23/19 66/28/19 65/29/19
f 65/29/20 66/28/20 56/30/20 55/31/20
f 55/12/3 57/32/3 59/13/3 61/33/3 63/14/3 65/34/3
f 79/1/21 68/2/21 70/19/21 80/35/21
f 80/35/22 70/19/22 72/3/22 81/4/22
f 81/4/23 72/3/23 74/21/23 82/36/23
f 82/36/24 74/21/24 76/23/24 83/37/24
f 70/25/3 68/8/3 78/26/3 76/9/3 74/27/3 72/7/3
f 83/37/25 76/23/25 78/28/25 84/38/25
f 84/38/26 78/28/26 68/30/26 79/39/26
f 67/12/5 69/32/5 71/13/5 73/33/5 75/14/5 77/34/5
f 77/29/27 84/38/27 79/39/27 67/31/27
f 75/24/28 83/37/28 84/38/28 77/29/28
f 73/22/29 82/36/29 83/37/29 75/24/29
f 71/17/30 81/4/30 82/36/30 73/22/30
f 69/20/31 80/35/31 81/4/31 71/17/31
f 67/18/32 79/1/32 80/35/32 69/20/32
