# Blender 4.4.3
# www.blender.org
mtllib gas_giant.mtl
o Sphere.002
v 0.321394 0.866025 -0.383022
v 0.556670 0.500000 -0.663414
v 0.642788 0.000000 -0.766044
v 0.556670 -0.500000 -0.663414
v 0.321394 -0.866025 -0.383022
v 0.492404 0.866025 -0.086824
v 0.852868 0.500000 -0.150384
v 0.984808 0.000000 -0.173648
v 0.852868 -0.500000 -0.150384
v 0.492404 -0.866025 -0.086824
v 0.433013 0.866025 0.250000
v 0.750000 0.500000 0.433013
v 0.866025 0.000000 0.500000
v 0.750000 -0.500000 0.433013
v 0.433013 -0.866025 0.250000
v 0.171010 0.866025 0.469846
v 0.296198 0.500000 0.813798
v 0.342020 0.000000 0.939692
v 0.296198 -0.500000 0.813798
v 0.171010 -0.866025 0.469846
v -0.171010 0.866025 0.469846
v -0.296198 0.500000 0.813798
v -0.342020 0.000000 0.939692
v -0.296198 -0.500000 0.813798
v -0.171010 -0.866025 0.469846
v 0.000000 1.000000 0.000000
v -0.433013 0.866025 0.250000
v -0.750000 0.500000 0.433013
v -0.866025 0.000000 0.500000
v -0.750000 -0.500000 0.433013
v -0.433013 -0.866025 0.250000
v -0.492404 0.866025 -0.086824
v -0.852868 0.500000 -0.150384
v -0.984808 0.000000 -0.173648
v -0.852868 -0.500000 -0.150384
v -0.492404 -0.866025 -0.086824
v -0.321394 0.866025 -0.383022
v -0.556670 0.500000 -0.663414
v -0.642788 0.000000 -0.766044
v -0.556670 -0.500000 -0.663414
v -0.321394 -0.866025 -0.383022
v -0.000000 0.866025 -0.500000
v -0.000000 0.500000 -0.866025
v -0.000000 0.000000 -1.000000
v -0.000000 -0.500000 -0.866025
v -0.000000 -0.866025 -0.500000
v 0.000000 -1.000000 0.000000
v 0.000000 0.000000 -2.042343
v 0.528597 0.000000 -1.972752
v 1.021172 0.000000 -1.768721
v 1.444155 0.000000 -1.444155
v 1.768721 0.000000 -1.021172
v 1.972752 0.000000 -0.528597
v 2.042343 0.000000 0.000000
v 1.972752 0.000000 0.528597
v 1.768721 0.000000 1.021172
v 1.444155 0.000000 1.444155
v 1.021172 0.000000 1.768721
v 0.528597 0.000000 1.972752
v 0.000000 0.000000 2.042343
v -0.528597 0.000000 1.972752
v -1.021172 0.000000 1.768721
v -1.444155 0.000000 1.444155
v -1.768721 0.000000 1.021172
v -1.972752 0.000000 0.528597
v -2.042343 0.000000 0.000000
v -1.972752 0.000000 -0.528597
v -1.768721 0.000000 -1.021172
v -1.444155 0.000000 -1.444155
v -1.021172 0.000000 -1.768721
v -0.528597 0.000000 -1.972752
v 0.368470 0.000000 -1.375149
v 0.000000 0.000000 -1.423659
v -0.368470 0.000000 -1.375149
v 0.711830 0.000000 -1.232925
v -0.711830 0.000000 -1.232925
v 1.232925 0.000000 -0.711830
v 1.006679 0.000000 -1.006679
v -1.006679 0.000000 -1.006679
v 1.375149 0.000000 -0.368470
v -1.232925 0.000000 -0.711830
v 1.423659 0.000000 0.000000
v -1.375149 0.000000 -0.368470
v -1.423659 0.000000 0.000000
v 1.375149 0.000000 0.368470
v -1.375149 0.000000 0.368470
v 1.232925 0.000000 0.711830
v 1.006679 0.000000 1.006679
v 0.711830 0.000000 1.232925
v 0.368470 0.000000 1.375149
v 0.000000 -0.000000 1.423659
v -0.368470 -0.000000 1.375149
v -0.711830 -0.000000 1.232925
v -1.006679 -0.000000 1.006679
v -1.232925 -0.000000 0.711830
vn 0.2492 -0.6848 -0.6848
vn 0.3317 0.2442 -0.9113
vn 0.0938 0.9617 -0.2577
vn 0.0938 -0.9617 -0.2577
vn 0.3317 -0.2442 -0.9113
vn 0.2492 0.6848 -0.6848
vn 0.2375 0.9617 -0.1371
vn 0.2375 -0.9617 -0.1371
vn 0.8398 -0.2442 -0.4849
vn 0.6311 0.6848 -0.3644
vn 0.6311 -0.6848 -0.3644
vn 0.8398 0.2442 -0.4849
vn 0.2700 -0.9617 0.0476
vn 0.9550 -0.2442 0.1684
vn 0.7177 0.6848 0.1265
vn 0.7177 -0.6848 0.1265
vn 0.9550 0.2442 0.1684
vn 0.2700 0.9617 0.0476
vn 0.1763 -0.9617 0.2101
vn 0.6233 -0.2442 0.7429
vn 0.4684 0.6848 0.5582
vn 0.4684 -0.6848 0.5582
vn 0.6233 0.2442 0.7429
vn 0.1763 0.9617 0.2101
vn -0.0000 -0.9617 0.2742
vn -0.0000 -0.2442 0.9697
vn -0.0000 0.6848 0.7287
vn -0.0000 -0.6848 0.7287
vn -0.0000 0.2442 0.9697
vn -0.0000 0.9617 0.2742
vn -0.6233 -0.2442 0.7429
vn -0.4684 0.6848 0.5582
vn -0.4684 -0.6848 0.5582
vn -0.6233 0.2442 0.7429
vn -0.1763 0.9617 0.2101
vn -0.1763 -0.9617 0.2101
vn -0.7177 0.6848 0.1265
vn -0.7177 -0.6848 0.1265
vn -0.9550 0.2442 0.1684
vn -0.2700 0.9617 0.0476
vn -0.2700 -0.9617 0.0476
vn -0.9550 -0.2442 0.1684
vn -0.6311 -0.6848 -0.3644
vn -0.8398 0.2442 -0.4849
vn -0.2375 0.9617 -0.1371
vn -0.2375 -0.9617 -0.1371
vn -0.8398 -0.2442 -0.4849
vn -0.6311 0.6848 -0.3644
vn -0.2492 -0.6848 -0.6848
vn -0.3317 0.2442 -0.9113
vn -0.0938 0.9617 -0.2577
vn -0.0938 -0.9617 -0.2577
vn -0.3317 -0.2442 -0.9113
vn -0.2492 0.6848 -0.6848
vn -0.0000 1.0000 -0.0000
vt 0.666667 0.166667
vt 0.666667 0.333333
vt 0.555556 0.333333
vt 0.555556 0.166667
vt 0.666667 0.500000
vt 0.666667 0.666667
vt 0.555556 0.666667
vt 0.555556 0.500000
vt 0.666667 0.833333
vt 0.611111 1.000000
vt 0.555556 0.833333
vt 0.611111 0.000000
vt 0.500000 1.000000
vt 0.444444 0.833333
vt 0.500000 0.000000
vt 0.444444 0.166667
vt 0.444444 0.500000
vt 0.444444 0.333333
vt 0.444444 0.666667
vt 0.388889 0.000000
vt 0.333333 0.166667
vt 0.333333 0.500000
vt 0.333333 0.333333
vt 0.333333 0.833333
vt 0.333333 0.666667
vt 0.388889 1.000000
vt 0.277778 0.000000
vt 0.222222 0.166667
vt 0.222222 0.500000
vt 0.222222 0.333333
vt 0.222222 0.833333
vt 0.222222 0.666667
vt 0.277778 1.000000
vt 0.166667 0.000000
vt 0.111111 0.166667
vt 0.111111 0.500000
vt 0.111111 0.333333
vt 0.111111 0.833333
vt 0.111111 0.666667
vt 0.166667 1.000000
vt 0.000000 0.500000
vt 0.000000 0.333333
vt 0.000000 0.833333
vt 0.000000 0.666667
vt 0.000000 0.166667
vt 0.055556 1.000000
vt 0.055556 0.000000
vt 1.000000 0.666667
vt 1.000000 0.833333
vt 0.888889 0.833333
vt 0.888889 0.666667
vt 1.000000 0.166667
vt 1.000000 0.333333
vt 0.888889 0.333333
vt 0.888889 0.166667
vt 1.000000 0.500000
vt 0.888889 0.500000
vt 0.944444 1.000000
vt 0.944444 0.000000
vt 0.777778 0.333333
vt 0.777778 0.166667
vt 0.777778 0.666667
vt 0.777778 0.500000
vt 0.833333 1.000000
vt 0.777778 0.833333
vt 0.833333 0.000000
vt 0.722222 1.000000
vt 0.722222 0.000000
vt 0.312117 0.481822
vt 0.250000 0.490000
vt 0.187883 0.481822
vt 0.130000 0.457846
vt 0.080294 0.419706
vt 0.042154 0.370000
vt 0.018178 0.312117
vt 0.010000 0.250000
vt 0.094692 0.250000
vt 0.099984 0.290197
vt 0.115499 0.327654
vt 0.140180 0.359819
vt 0.172346 0.384501
vt 0.209803 0.400016
vt 0.250000 0.405308
vt 0.290197 0.400016
vt 0.327654 0.384501
vt 0.359819 0.359820
vt 0.384501 0.327654
vt 0.400016 0.290197
vt 0.405308 0.250000
vt 0.490000 0.250000
vt 0.481822 0.312117
vt 0.457846 0.370000
vt 0.419706 0.419706
vt 0.370000 0.457846
vt 0.400016 0.209803
vt 0.384501 0.172346
vt 0.359820 0.140180
vt 0.327654 0.115499
vt 0.290197 0.099984
vt 0.250000 0.094692
vt 0.209803 0.099984
vt 0.172346 0.115499
vt 0.140180 0.140180
vt 0.115499 0.172346
vt 0.099984 0.209803
vt 0.018178 0.187883
vt 0.042154 0.130000
vt 0.080294 0.080294
vt 0.130000 0.042154
vt 0.187883 0.018178
vt 0.250000 0.010000
vt 0.312117 0.018178
vt 0.370000 0.042154
vt 0.419706 0.080294
vt 0.457846 0.130000
vt 0.481822 0.187883
s 0
f 46/1/1 45/2/1 4/3/1 5/4/1
f 44/5/2 43/6/2 2/7/2 3/8/2
f 42/9/3 26/10/3 1/11/3
f 47/12/4 46/1/4 5/4/4
f 45/2/5 44/5/5 3/8/5 4/3/5
f 43/6/6 42/9/6 1/11/6 2/7/6
f 1/11/7 26/13/7 6/14/7
f 47/15/8 5/4/8 10/16/8
f 4/3/9 3/8/9 8/17/9 9/18/9
f 2/7/10 1/11/10 6/14/10 7/19/10
f 5/4/11 4/3/11 9/18/11 10/16/11
f 3/8/12 2/7/12 7/19/12 8/17/12
f 47/20/13 10/16/13 15/21/13
f 9/18/14 8/17/14 13/22/14 14/23/14
f 7/19/15 6/14/15 11/24/15 12/25/15
f 10/16/16 9/18/16 14/23/16 15/21/16
f 8/17/17 7/19/17 12/25/17 13/22/17
f 6/14/18 26/26/18 11/24/18
f 47/27/19 15/21/19 20/28/19
f 14/23/20 13/22/20 18/29/20 19/30/20
f 12/25/21 11/24/21 16/31/21 17/32/21
f 15/21/22 14/23/22 19/30/22 20/28/22
f 13/22/23 12/25/23 17/32/23 18/29/23
f 11/24/24 26/33/24 16/31/24
f 47/34/25 20/28/25 25/35/25
f 19/30/26 18/29/26 23/36/26 24/37/26
f 17/32/27 16/31/27 21/38/27 22/39/27
f 20/28/28 19/30/28 24/37/28 25/35/28
f 18/29/29 17/32/29 22/39/29 23/36/29
f 16/31/30 26/40/30 21/38/30
f 24/37/31 23/36/31 29/41/31 30/42/31
f 22/39/32 21/38/32 27/43/32 28/44/32
f 25/35/33 24/37/33 30/42/33 31/45/33
f 23/36/34 22/39/34 28/44/34 29/41/34
f 21/38/35 26/46/35 27/43/35
f 47/47/36 25/35/36 31/45/36
f 28/48/37 27/49/37 32/50/37 33/51/37
f 31/52/38 30/53/38 35/54/38 36/55/38
f 29/56/39 28/48/39 33/51/39 34/57/39
f 27/49/40 26/58/40 32/50/40
f 47/59/41 31/52/41 36/55/41
f 30/53/42 29/56/42 34/57/42 35/54/42
f 36/55/43 35/54/43 40/60/43 41/61/43
f 34/57/44 33/51/44 38/62/44 39/63/44
f 32/50/45 26/64/45 37/65/45
f 47/66/46 36/55/46 41/61/46
f 35/54/47 34/57/47 39/63/47 40/60/47
f 33/51/48 32/50/48 37/65/48 38/62/48
f 41/61/49 40/60/49 45/2/49 46/1/49
f 39/63/50 38/62/50 43/6/50 44/5/50
f 37/65/51 26/67/51 42/9/51
f 47/68/52 41/61/52 46/1/52
f 40/60/53 39/63/53 44/5/53 45/2/53
f 38/62/54 37/65/54 42/9/54 43/6/54
f 49/69/55 48/70/55 71/71/55 70/72/55 69/73/55 68/74/55 67/75/55 66/76/55 84/77/55 83/78/55 81/79/55 79/80/55 76/81/55 74/82/55 73/83/55 72/84/55 75/85/55 78/86/55 77/87/55 80/88/55 82/89/55 54/90/55 53/91/55 52/92/55 51/93/55 50/94/55
f 54/90/55 82/89/55 85/95/55 87/96/55 88/97/55 89/98/55 90/99/55 91/100/55 92/101/55 93/102/55 94/103/55 95/104/55 86/105/55 84/77/55 66/76/55 65/106/55 64/107/55 63/108/55 62/109/55 61/110/55 60/111/55 59/112/55 58/113/55 57/114/55 56/115/55 55/116/55
