# Blender 4.4.3
# www.blender.org
mtllib ringworld.mtl
o Ringworld
v 0.000000 -0.178742 -1.000000
v 0.000000 0.178742 -1.000000
v 0.258819 -0.178742 -0.965926
v 0.258819 0.178742 -0.965926
v 0.500000 -0.178742 -0.866025
v 0.500000 0.178742 -0.866025
v 0.707107 -0.178742 -0.707107
v 0.707107 0.178742 -0.707107
v 0.866025 -0.178742 -0.500000
v 0.866025 0.178742 -0.500000
v 0.965926 -0.178742 -0.258819
v 0.965926 0.178742 -0.258819
v 1.000000 -0.178742 0.000000
v 1.000000 0.178742 0.000000
v 0.965926 -0.178742 0.258819
v 0.965926 0.178742 0.258819
v 0.866025 -0.178742 0.500000
v 0.866025 0.178742 0.500000
v 0.707107 -0.178742 0.707107
v 0.707107 0.178742 0.707107
v 0.500000 -0.178742 0.866025
v 0.500000 0.178742 0.866025
v 0.258819 -0.178742 0.965926
v 0.258819 0.178742 0.965926
v 0.000000 -0.178742 1.000000
v 0.000000 0.178742 1.000000
v -0.258819 -0.178742 0.965926
v -0.258819 0.178742 0.965926
v -0.500000 -0.178742 0.866025
v -0.500000 0.178742 0.866025
v -0.707107 -0.178742 0.707107
v -0.707107 0.178742 0.707107
v -0.866025 -0.178742 0.500000
v -0.866025 0.178742 0.500000
v -0.965926 -0.178742 0.258819
v -0.965926 0.178742 0.258819
v -1.000000 -0.178742 0.000000
v -1.000000 0.178742 0.000000
v -0.965926 -0.178742 -0.258819
v -0.965926 0.178742 -0.258819
v -0.866025 -0.178742 -0.500000
v -0.866025 0.178742 -0.500000
v -0.707107 -0.178742 -0.707107
v -0.707107 0.178742 -0.707107
v -0.500000 -0.178742 -0.866025
v -0.500000 0.178742 -0.866025
v -0.258819 -0.178742 -0.965926
v -0.258819 0.178742 -0.965926
v -0.809074 0.178742 -0.216791
v -0.592283 0.178742 -0.592283
v -0.725396 0.178742 -0.418808
v -0.216791 0.178742 -0.809074
v -0.418808 0.178742 -0.725396
v 0.216791 0.178742 -0.809074
v 0.000000 0.178742 -0.837615
v -0.809074 0.178742 0.216791
v -0.592283 0.178742 0.592283
v -0.725396 0.178742 0.418808
v -0.216791 0.178742 0.809074
v 0.216791 0.178742 0.809074
v 0.000000 0.178742 0.837615
v -0.418808 0.178742 0.725396
v 0.592283 0.178742 -0.592283
v 0.592283 0.178742 0.592283
v 0.837615 0.178742 0.000000
v 0.809074 0.178742 -0.216791
v 0.725396 0.178742 0.418808
v 0.809074 0.178742 0.216791
v 0.725396 0.178742 -0.418808
v -0.837615 0.178742 0.000000
v 0.418808 0.178742 0.725396
v 0.418808 0.178742 -0.725396
v 0.000000 -0.178742 -0.837615
v 0.418808 -0.178742 -0.725396
v 0.216791 -0.178742 -0.809074
v 0.725396 -0.178742 -0.418808
v 0.809074 -0.178742 -0.216791
v 0.837615 -0.178742 0.000000
v 0.592283 -0.178742 -0.592283
v -0.418808 -0.178742 0.725396
v 0.000000 -0.178742 0.837615
v -0.216791 -0.178742 0.809074
v 0.418808 -0.178742 0.725396
v 0.216791 -0.178742 0.809074
v 0.725396 -0.178742 0.418808
v 0.592283 -0.178742 0.592283
v -0.837615 -0.178742 0.000000
v -0.809074 -0.178742 0.216791
v -0.809074 -0.178742 -0.216791
v -0.418808 -0.178742 -0.725396
v -0.592283 -0.178742 -0.592283
v -0.725396 -0.178742 0.418808
v -0.725396 -0.178742 -0.418808
v -0.592283 -0.178742 0.592283
v 0.809074 -0.178742 0.216791
v -0.216791 -0.178742 -0.809074
vn 0.1305 -0.0000 -0.9914
vn 0.3827 -0.0000 -0.9239
vn 0.6088 -0.0000 -0.7934
vn 0.7934 -0.0000 -0.6088
vn 0.9239 -0.0000 -0.3827
vn 0.9914 -0.0000 -0.1305
vn 0.9914 -0.0000 0.1305
vn 0.9239 -0.0000 0.3827
vn 0.7934 -0.0000 0.6088
vn 0.6088 -0.0000 0.7934
vn 0.3827 -0.0000 0.9239
vn 0.1305 -0.0000 0.9914
vn -0.1305 -0.0000 0.9914
vn -0.3827 -0.0000 0.9239
vn -0.6088 -0.0000 0.7934
vn -0.7934 -0.0000 0.6088
vn -0.9239 -0.0000 0.3827
vn -0.9914 -0.0000 0.1305
vn -0.9914 -0.0000 -0.1305
vn -0.9239 -0.0000 -0.3827
vn -0.7934 -0.0000 -0.6088
vn -0.6088 -0.0000 -0.7934
vn -0.0000 1.0000 -0.0000
vn -0.3827 -0.0000 -0.9239
vn -0.1305 -0.0000 -0.9914
vn -0.0000 -1.0000 -0.0000
vt 1.000000 0.500000
vt 1.000000 1.000000
vt 0.958333 1.000000
vt 0.958333 0.500000
vt 0.916667 1.000000
vt 0.916667 0.500000
vt 0.875000 1.000000
vt 0.875000 0.500000
vt 0.833333 1.000000
vt 0.833333 0.500000
vt 0.791667 1.000000
vt 0.791667 0.500000
vt 0.750000 1.000000
vt 0.750000 0.500000
vt 0.708333 1.000000
vt 0.708333 0.500000
vt 0.666667 1.000000
vt 0.666667 0.500000
vt 0.625000 1.000000
vt 0.625000 0.500000
vt 0.583333 1.000000
vt 0.583333 0.500000
vt 0.541666 1.000000
vt 0.541666 0.500000
vt 0.500000 1.000000
vt 0.500000 0.500000
vt 0.458333 1.000000
vt 0.458333 0.500000
vt 0.416666 1.000000
vt 0.416666 0.500000
vt 0.375000 1.000000
vt 0.375000 0.500000
vt 0.333333 1.000000
vt 0.333333 0.500000
vt 0.291667 1.000000
vt 0.291667 0.500000
vt 0.250000 1.000000
vt 0.250000 0.500000
vt 0.208333 1.000000
vt 0.208333 0.500000
vt 0.166666 1.000000
vt 0.166666 0.500000
vt 0.125000 1.000000
vt 0.125000 0.500000
vt 0.083333 1.000000
vt 0.083333 0.500000
vt 0.149486 0.075905
vt 0.130000 0.042154
vt 0.187883 0.018178
vt 0.250000 0.010000
vt 0.312117 0.018178
vt 0.370000 0.042154
vt 0.419706 0.080294
vt 0.457846 0.130000
vt 0.481822 0.187883
vt 0.490000 0.250000
vt 0.481822 0.312117
vt 0.457846 0.370000
vt 0.419706 0.419706
vt 0.370000 0.457846
vt 0.350514 0.424095
vt 0.392148 0.392148
vt 0.424095 0.350514
vt 0.444178 0.302030
vt 0.451028 0.250000
vt 0.444178 0.197970
vt 0.424095 0.149486
vt 0.392148 0.107852
vt 0.350514 0.075905
vt 0.302030 0.055822
vt 0.250000 0.048972
vt 0.197970 0.055822
vt 0.312117 0.481822
vt 0.250000 0.490000
vt 0.187883 0.481822
vt 0.130000 0.457846
vt 0.080294 0.419706
vt 0.042154 0.370000
vt 0.018178 0.312117
vt 0.010000 0.250000
vt 0.018178 0.187883
vt 0.042154 0.130000
vt 0.080294 0.080294
vt 0.107852 0.107852
vt 0.075905 0.149486
vt 0.055822 0.197970
vt 0.048972 0.250000
vt 0.055822 0.302030
vt 0.075905 0.350514
vt 0.107852 0.392148
vt 0.149486 0.424095
vt 0.197970 0.444178
vt 0.250000 0.451028
vt 0.302030 0.444178
vt 0.041666 1.000000
vt 0.041666 0.500000
vt -0.000000 1.000000
vt -0.000000 0.500000
vt 0.892148 0.392148
vt 0.919706 0.419706
vt 0.957846 0.370000
vt 0.981822 0.312117
vt 0.990000 0.250000
vt 0.981822 0.187883
vt 0.957846 0.130000
vt 0.919706 0.080294
vt 0.870000 0.042154
vt 0.812117 0.018178
vt 0.750000 0.010000
vt 0.687883 0.018178
vt 0.630000 0.042154
vt 0.580294 0.080294
vt 0.607852 0.107852
vt 0.649486 0.075905
vt 0.697970 0.055822
vt 0.750000 0.048972
vt 0.802030 0.055822
vt 0.850514 0.075905
vt 0.892148 0.107852
vt 0.924095 0.149486
vt 0.944178 0.197970
vt 0.951028 0.250000
vt 0.944178 0.302030
vt 0.924095 0.350514
vt 0.542154 0.130000
vt 0.518178 0.187883
vt 0.510000 0.250000
vt 0.518178 0.312117
vt 0.542154 0.370000
vt 0.580294 0.419706
vt 0.630000 0.457846
vt 0.687883 0.481822
vt 0.750000 0.490000
vt 0.812117 0.481822
vt 0.870000 0.457846
vt 0.850514 0.424095
vt 0.802030 0.444178
vt 0.750000 0.451028
vt 0.697970 0.444178
vt 0.649486 0.424095
vt 0.607852 0.392148
vt 0.575905 0.350514
vt 0.555822 0.302030
vt 0.548972 0.250000
vt 0.555822 0.197970
vt 0.575905 0.149486
vt 0.958333 0.611097
vt 0.958333 0.888903
vt 1.000000 0.888903
vt 1.000000 0.611097
vt 0.916667 0.611097
vt 0.916667 0.888903
vt 0.958333 0.888903
vt 0.958333 0.611097
vt 0.875000 0.611097
vt 0.875000 0.888903
vt 0.916667 0.611097
vt 0.833333 0.888903
vt 0.833333 0.611097
vt 0.791667 0.888903
vt 0.833333 0.888903
vt 0.791667 0.611097
vt 0.750000 0.888903
vt 0.791667 0.888903
vt 0.791667 0.611097
vt 0.750000 0.611097
vt 0.708333 0.888903
vt 0.750000 0.888903
vt 0.750000 0.611097
vt 0.708333 0.611097
vt 0.666667 0.888903
vt 0.708333 0.888903
vt 0.708333 0.611097
vt 0.666667 0.611097
vt 0.625000 0.888903
vt 0.666667 0.611097
vt 0.625000 0.611097
vt 0.583333 0.888903
vt 0.583333 0.611097
vt 0.541666 0.888903
vt 0.583333 0.888903
vt 0.541666 0.611097
vt 0.500000 0.888903
vt 0.541666 0.888903
vt 0.541666 0.611097
vt 0.500000 0.611097
vt 0.458333 0.888903
vt 0.500000 0.888903
vt 0.500000 0.611097
vt 0.458333 0.611097
vt 0.416666 0.888903
vt 0.458333 0.888903
vt 0.458333 0.611097
vt 0.416666 0.611097
vt 0.375000 0.888903
vt 0.416666 0.611097
vt 0.375000 0.611097
vt 0.333333 0.611097
vt 0.333333 0.888903
vt 0.291667 0.611097
vt 0.291667 0.888903
vt 0.333333 0.888903
vt 0.250000 0.611097
vt 0.250000 0.888903
vt 0.291667 0.888903
vt 0.291667 0.611097
vt 0.208333 0.611097
vt 0.208333 0.888903
vt 0.250000 0.888903
vt 0.250000 0.611097
vt 0.166666 0.611097
vt 0.166666 0.888903
vt 0.208333 0.888903
vt 0.208333 0.611097
vt 0.125000 0.611097
vt 0.125000 0.888903
vt 0.166666 0.611097
vt 0.083333 0.611097
vt 0.083333 0.888903
vt 0.041666 0.611097
vt 0.041666 0.888903
vt 0.083333 0.888903
vt -0.000000 0.611097
vt -0.000000 0.888903
vt 0.041666 0.888903
vt 0.041666 0.611097
s 0
f 1/1/1 2/2/1 4/3/1 3/4/1
f 3/4/2 4/3/2 6/5/2 5/6/2
f 5/6/3 6/5/3 8/7/3 7/8/3
f 7/8/4 8/7/4 10/9/4 9/10/4
f 9/10/5 10/9/5 12/11/5 11/12/5
f 11/12/6 12/11/6 14/13/6 13/14/6
f 13/14/7 14/13/7 16/15/7 15/16/7
f 15/16/8 16/15/8 18/17/8 17/18/8
f 17/18/9 18/17/9 20/19/9 19/20/9
f 19/20/10 20/19/10 22/21/10 21/22/10
f 21/22/11 22/21/11 24/23/11 23/24/11
f 23/24/12 24/23/12 26/25/12 25/26/12
f 25/26/13 26/25/13 28/27/13 27/28/13
f 27/28/14 28/27/14 30/29/14 29/30/14
f 29/30/15 30/29/15 32/31/15 31/32/15
f 31/32/16 32/31/16 34/33/16 33/34/16
f 33/34/17 34/33/17 36/35/17 35/36/17
f 35/36/18 36/35/18 38/37/18 37/38/18
f 37/38/19 38/37/19 40/39/19 39/40/19
f 39/40/20 40/39/20 42/41/20 41/42/20
f 41/42/21 42/41/21 44/43/21 43/44/21
f 43/44/22 44/43/22 46/45/22 45/46/22
f 62/47/23 30/48/23 28/49/23 26/50/23 24/51/23 22/52/23 20/53/23 18/54/23 16/55/23 14/56/23 12/57/23 10/58/23 8/59/23 6/60/23 72/61/23 63/62/23 69/63/23 66/64/23 65/65/23 68/66/23 67/67/23 64/68/23 71/69/23 60/70/23 61/71/23 59/72/23
f 72/61/23 6/60/23 4/73/23 2/74/23 48/75/23 46/76/23 44/77/23 42/78/23 40/79/23 38/80/23 36/81/23 34/82/23 32/83/23 30/48/23 62/47/23 57/84/23 58/85/23 56/86/23 70/87/23 49/88/23 51/89/23 50/90/23 53/91/23 52/92/23 55/93/23 54/94/23
f 45/46/24 46/45/24 48/95/24 47/96/24
f 47/96/25 48/95/25 2/97/25 1/98/25
f 79/99/26 7/100/26 9/101/26 11/102/26 13/103/26 15/104/26 17/105/26 19/106/26 21/107/26 23/108/26 25/109/26 27/110/26 29/111/26 31/112/26 94/113/26 80/114/26 82/115/26 81/116/26 84/117/26 83/118/26 86/119/26 85/120/26 95/121/26 78/122/26 77/123/26 76/124/26
f 94/113/26 31/112/26 33/125/26 35/126/26 37/127/26 39/128/26 41/129/26 43/130/26 45/131/26 47/132/26 1/133/26 3/134/26 5/135/26 7/100/26 79/99/26 74/136/26 75/137/26 73/138/26 96/139/26 90/140/26 91/141/26 93/142/26 89/143/26 87/144/26 88/145/26 92/146/26
f 75/147/13 54/148/13 55/149/13 73/150/13
f 74/151/14 72/152/14 54/153/14 75/154/14
f 79/155/15 63/156/15 72/152/15 74/157/15
f 69/158/16 63/156/16 79/155/16 76/159/16
f 66/160/17 69/161/17 76/159/17 77/162/17
f 65/163/18 66/164/18 77/165/18 78/166/18
f 68/167/19 65/168/19 78/169/19 95/170/19
f 67/171/20 68/172/20 95/173/20 85/174/20
f 64/175/21 67/171/21 85/176/21 86/177/21
f 71/178/22 64/175/22 86/177/22 83/179/22
f 60/180/24 71/181/24 83/179/24 84/182/24
f 61/183/25 60/184/25 84/185/25 81/186/25
f 59/187/1 61/188/1 81/189/1 82/190/1
f 62/191/2 59/192/2 82/193/2 80/194/2
f 57/195/3 62/191/3 80/196/3 94/197/3
f 92/198/4 58/199/4 57/195/4 94/197/4
f 88/200/5 56/201/5 58/202/5 92/198/5
f 87/203/6 70/204/6 56/205/6 88/206/6
f 89/207/7 49/208/7 70/209/7 87/210/7
f 93/211/8 51/212/8 49/213/8 89/214/8
f 91/215/9 50/216/9 51/212/9 93/217/9
f 90/218/10 53/219/10 50/216/10 91/215/10
f 96/220/11 52/221/11 53/222/11 90/218/11
f 73/223/12 55/224/12 52/225/12 96/226/12
