# Blender 4.4.3
# www.blender.org
mtllib the_tower.mtl
o Cube
v 0.000000 -0.755266 0.000000
v 0.000000 0.755266 0.000000
v -0.197106 -0.000000 0.197106
v -0.197106 -0.000000 -0.197106
v -0.197106 0.000000 -0.197106
v -0.098553 -0.170699 -0.098553
v -0.098553 -0.170699 0.098553
v 0.098553 -0.170699 -0.098553
v 0.098553 -0.170699 0.098553
v 0.197106 -0.000000 0.197106
v 0.197106 0.000000 -0.197106
v 0.197106 0.000000 0.197106
v 0.098553 0.170699 -0.098553
v 0.098553 0.170699 0.098553
v -0.098553 0.170699 0.098553
v -0.098553 0.170699 -0.098553
v -0.547293 0.170699 0.000000
v -0.510001 0.000000 0.197106
v -0.448740 0.170699 0.098553
v -0.197106 0.000000 0.510001
v -0.098553 0.170699 0.448740
v 0.000000 0.170699 0.547293
v -0.510001 0.000000 -0.197106
v -0.487819 0.061807 -0.161422
v -0.487819 0.061807 -0.161422
v -0.197106 0.000000 -0.510001
v -0.448740 0.170699 -0.098553
v 0.000000 0.170699 -0.547292
v -0.098553 0.170699 -0.448739
v -0.197106 0.000000 -0.510001
v -0.098553 0.170699 -0.448739
v -0.197106 0.000000 -0.510001
v 0.197106 0.000000 -0.510001
v 0.098553 0.170699 -0.448739
v 0.510001 0.000000 -0.197106
v 0.197106 0.000000 -0.510001
v 0.448739 0.170699 -0.098553
v 0.547292 0.170699 0.000000
v 0.510001 0.000000 -0.197106
v 0.098553 0.170699 0.448740
v 0.197106 0.000000 0.510001
v 0.510001 0.000000 0.197106
v 0.510001 0.000000 0.197106
v 0.448739 0.170699 0.098553
v 0.448739 0.170699 0.098553
v 0.000000 -0.170699 0.547292
v 0.098553 -0.170699 0.448739
v 0.098553 -0.170699 0.448739
v 0.197106 -0.000000 0.510001
v 0.448740 -0.170699 0.098553
v 0.487819 -0.061807 0.161422
v 0.487819 -0.061807 0.161422
v 0.547293 -0.170699 0.000000
v 0.197106 -0.000000 0.510001
v 0.000000 -0.170699 -0.547293
v 0.098553 -0.170699 -0.448740
v 0.448740 -0.170699 -0.098553
v -0.547292 -0.170699 0.000000
v -0.448739 -0.170699 -0.098553
v -0.448739 -0.170699 -0.098553
v -0.510001 -0.000000 -0.197106
v -0.098553 -0.170699 -0.448740
v -0.510001 -0.000000 0.197106
v -0.448739 -0.170699 0.098553
v -0.197106 -0.000000 0.510001
v -0.098553 -0.170699 0.448739
vn -0.5896 0.5520 0.5896
vn -0.5896 0.5520 -0.5896
vn 0.5896 0.5520 -0.5896
vn 0.5896 0.5520 0.5896
vn 0.5896 -0.5520 0.5896
vn 0.5896 -0.5520 -0.5896
vn -0.5896 -0.5520 -0.5896
vn -0.5896 -0.5520 0.5896
vn 0.8660 0.5000 -0.0000
vn -0.0000 1.0000 -0.0000
vn -0.8660 0.5000 -0.0000
vn -0.8660 -0.5000 -0.0000
vn -0.0000 -1.0000 -0.0000
vn 0.8660 -0.5000 -0.0000
vn -0.0000 0.5000 0.8660
vn -0.0000 0.5000 -0.8660
vn -0.0000 -0.5000 -0.8660
vn -0.0000 -0.5000 0.8660
vt 0.528251 0.056503
vt 0.625000 0.250000
vt 0.528251 0.250000
vt 0.528251 0.215156
vt 0.500000 0.180312
vt 0.500000 0.069688
vt 0.528251 0.091347
vt 0.500000 0.430312
vt 0.500000 0.319688
vt 0.510229 0.327530
vt 0.510229 0.327530
vt 0.528251 0.341347
vt 0.528251 0.306503
vt 0.625000 0.500000
vt 0.528251 0.500000
vt 0.528251 0.465156
vt 0.528251 0.715156
vt 0.500000 0.680312
vt 0.500000 0.569688
vt 0.528251 0.591347
vt 0.528251 0.556503
vt 0.625000 0.750000
vt 0.528251 0.750000
vt 0.528251 0.841347
vt 0.528251 0.806503
vt 0.625000 1.000000
vt 0.528251 1.000000
vt 0.528251 0.965156
vt 0.500000 0.930313
vt 0.500000 0.819688
vt 0.500000 0.930312
vt 0.471749 0.908653
vt 0.471749 0.943497
vt 0.375000 0.750000
vt 0.471749 0.750000
vt 0.471749 0.784844
vt 0.489771 0.807071
vt 0.489771 0.807071
vt 0.500000 0.819687
vt 0.471749 0.693497
vt 0.375000 0.500000
vt 0.471749 0.500000
vt 0.471749 0.534844
vt 0.500000 0.569687
vt 0.500000 0.680313
vt 0.471749 0.658653
vt 0.500000 0.319688
vt 0.500000 0.430312
vt 0.471749 0.408653
vt 0.471749 0.443497
vt 0.375000 0.250000
vt 0.471749 0.250000
vt 0.471749 0.284844
vt 0.500000 0.069688
vt 0.500000 0.069688
vt 0.500000 0.180312
vt 0.500000 0.180312
vt 0.471749 0.158653
vt 0.471749 0.193497
vt 0.375000 0.000000
vt 0.471749 0.000000
vt 0.471749 0.034844
vt 1.000000 0.877500
vt 1.000000 0.799276
vt 0.833333 0.774638
vt 0.833333 0.862185
vt 0.833333 0.637815
vt 0.833333 0.725362
vt 1.000000 0.700724
vt 1.000000 0.622500
vt 0.666667 0.774638
vt 0.666667 0.862185
vt 0.750000 0.886823
vt 0.750000 0.613177
vt 0.666667 0.637815
vt 0.833333 0.637815
vt 0.500000 0.799277
vt 0.500000 0.877500
vt 0.500000 0.622500
vt 0.500000 0.700723
vt 0.666667 0.725362
vt 0.333333 0.774638
vt 0.333333 0.862185
vt 0.500000 0.622500
vt 0.333333 0.637815
vt 0.333333 0.725362
vt 0.500000 0.700724
vt 0.166667 0.725362
vt 0.166667 0.862185
vt 0.250000 0.886823
vt 0.250000 0.613177
vt 0.166667 0.637815
vt 0.166667 0.725362
vt 0.166667 0.774638
vt -0.000000 0.799277
vt -0.000000 0.877500
vt 0.166667 0.862185
vt -0.000000 0.622500
vt -0.000000 0.700724
vt 0.166667 0.637815
vt 1.000000 0.877500
vt 0.500000 0.799276
vt 0.500000 0.877500
vt 0.560347 0.871955
vt 0.333333 0.774638
vt 0.333333 0.637815
vt 0.250000 0.886823
vt 0.333333 0.862185
vt 0.166667 0.862185
vt 0.060347 0.628045
vt 0.166667 0.637815
s 0
f 22/1/1 2/2/1 17/3/1 19/4/1 18/5/1 20/6/1 21/7/1
f 30/8/2 23/9/2 25/10/2 24/11/2 27/12/2 17/13/2 2/14/2 28/15/2 29/16/2 31/16/2 26/8/2 32/8/2
f 37/17/3 35/18/3 39/18/3 33/19/3 36/19/3 34/20/3 28/21/3 2/22/3 38/23/3
f 45/24/4 38/25/4 2/26/4 22/27/4 40/28/4 41/29/4 42/30/4 43/30/4 44/24/4
f 49/31/5 48/32/5 47/32/5 46/33/5 1/34/5 53/35/5 50/36/5 51/37/5 52/38/5 42/39/5 41/31/5 54/31/5
f 53/40/6 1/41/6 55/42/6 56/43/6 33/44/6 39/45/6 57/46/6
f 23/47/7 30/48/7 62/49/7 55/50/7 1/51/7 58/52/7 59/53/7 60/53/7 61/9/7
f 65/54/8 20/55/8 18/56/8 63/57/8 64/58/8 58/59/8 1/60/8 46/61/8 66/62/8
f 32/63/9 26/63/9 5/64/9 4/64/9 6/65/9 62/66/9 30/63/9
f 66/67/9 7/68/9 3/69/9 65/70/9
f 62/66/10 6/65/10 8/71/10 56/72/10 55/73/10
f 46/74/10 47/75/10 8/71/10 7/68/10 66/76/10
f 8/71/11 11/77/11 36/78/11 33/78/11 56/72/11
f 49/79/11 10/80/11 9/81/11 8/71/11 47/75/11 48/75/11
f 36/78/12 11/77/12 13/82/12 34/83/12
f 41/84/12 40/85/12 14/86/12 12/87/12 10/87/12 49/84/12 54/79/12
f 13/82/13 15/88/13 29/89/13 28/90/13 34/83/13
f 22/91/13 21/92/13 15/88/13 14/86/13 40/85/13
f 15/93/14 16/94/14 5/95/14 26/96/14 31/97/14 29/97/14
f 20/98/14 65/98/14 3/99/14 15/93/14 21/100/14
f 39/101/15 35/101/15 11/64/15 8/65/15 57/66/15
f 6/68/15 4/69/15 61/70/15 60/67/15 59/67/15 8/65/15
f 8/65/10 9/71/10 50/72/10 53/73/10 57/66/10
f 64/75/10 7/81/10 8/65/10 59/76/10 58/74/10
f 10/102/16 12/102/16 43/103/16 42/78/16 52/104/16 51/104/16 50/72/16 9/71/16
f 63/79/16 3/80/16 7/81/16 64/75/16
f 43/103/17 12/102/17 14/105/17 15/86/17 45/83/17 44/83/17
f 18/84/17 19/106/17 15/86/17 3/87/17 63/84/17
f 15/86/13 13/94/13 37/89/13 38/107/13 45/108/13
f 27/92/13 16/88/13 15/86/13 19/85/13 17/91/13
f 13/94/18 11/95/18 35/96/18 37/109/18
f 25/110/18 23/98/18 61/98/18 4/99/18 5/99/18 16/88/18 27/111/18 24/110/18
