# Blender 4.4.3
# www.blender.org
mtllib torusKnot.mtl
o TorusKnot
v -0.252029 -0.015854 0.027550
v -0.623986 -0.179725 -0.121764
v -0.623986 0.195579 0.094215
v -0.198035 0.227405 -0.428195
v -0.561101 0.132746 -0.644350
v -0.514280 0.521526 -0.459532
v -0.061489 0.350956 -0.790885
v -0.362884 0.350101 -1.101787
v -0.212701 0.725528 -0.946867
v 0.115679 0.364822 -1.021708
v -0.029392 0.362501 -1.429690
v 0.200187 0.699261 -1.283450
v 0.352230 0.254737 -1.134963
v 0.351932 0.158114 -1.557058
v 0.613118 0.468827 -1.406262
v 0.593266 0.039156 -1.108247
v 0.697774 -0.174934 -1.469832
v 0.958960 0.135779 -1.319036
v 0.760099 -0.183186 -0.969176
v 0.944520 -0.517626 -1.173233
v 1.185957 -0.180866 -1.047532
v 0.820199 -0.350956 -0.758015
v 1.030890 -0.725528 -0.705052
v 1.240146 -0.350101 -0.652450
v 0.741220 -0.409041 -0.444201
v 0.926481 -0.703162 -0.185993
v 1.109949 -0.314382 -0.237854
v 0.506664 -0.278038 -0.088717
v 0.634909 -0.489472 0.266739
v 0.821952 -0.114168 0.158749
v 0.149873 -0.015854 0.204489
v 0.206542 -0.179725 0.601270
v 0.393585 0.195579 0.493280
v -0.271811 0.227405 0.385601
v -0.277473 0.132746 0.808102
v -0.140826 0.521526 0.675145
v -0.654182 0.350956 0.448693
v -0.772734 0.350101 0.865160
v -0.713661 0.725528 0.657638
v -0.942665 0.364822 0.410673
v -1.223452 0.362501 0.740299
v -1.211594 0.699261 0.468357
v -1.159022 0.254737 0.262441
v -1.524418 0.158114 0.473747
v -1.524418 0.468827 0.172155
v -1.256403 0.039156 0.040340
v -1.621799 -0.174934 0.130626
v -1.621799 0.135779 -0.170966
v -1.219380 -0.183186 -0.173678
v -1.488310 -0.517626 -0.231362
v -1.500168 -0.180866 -0.503303
v -1.066560 -0.350956 -0.331306
v -1.126038 -0.725528 -0.540251
v -1.185112 -0.350101 -0.747773
v -0.755299 -0.409041 -0.419815
v -0.624315 -0.703162 -0.709360
v -0.760962 -0.314382 -0.842317
v -0.330164 -0.278038 -0.394425
v -0.086452 -0.489472 -0.683217
v -0.273495 -0.114168 -0.791206
v 0.102156 -0.015854 -0.232038
v 0.417444 -0.179725 -0.479505
v 0.230400 0.195579 -0.587495
v 0.469846 0.227405 0.042595
v 0.838574 0.132746 -0.163752
v 0.655106 0.521526 -0.215613
v 0.715671 0.350956 0.342192
v 1.135617 0.350101 0.236627
v 0.926362 0.725528 0.289229
v 0.826986 0.364822 0.611035
v 1.252844 0.362501 0.689391
v 1.011406 0.699261 0.815092
v 0.806792 0.254737 0.872522
v 1.172485 0.158114 1.083311
v 0.911299 0.468827 1.234107
v 0.663137 0.039156 1.067907
v 0.924025 -0.174934 1.339206
v 0.662839 0.135779 1.490002
v 0.459281 -0.183186 1.142853
v 0.543790 -0.517626 1.404595
v 0.314211 -0.180866 1.550835
v 0.246361 -0.350956 1.089321
v 0.095148 -0.725528 1.245303
v -0.055034 -0.350101 1.400223
v 0.014079 -0.409041 0.864016
v -0.302166 -0.703162 0.895352
v -0.348987 -0.314382 1.080171
v -0.176501 -0.278038 0.483143
v -0.548457 -0.489472 0.416478
v -0.548457 -0.114168 0.632457
vn 0.4725 -0.7894 -0.3919
vn -0.9895 0.1097 -0.0936
vn 0.5355 0.6955 0.4790
vn 0.3264 -0.9126 -0.2461
vn -0.8809 0.3624 -0.3044
vn 0.6122 0.5789 0.5386
vn 0.0335 -0.9993 -0.0164
vn -0.5468 0.5562 -0.6258
vn 0.6278 0.4381 0.6433
vn -0.3911 -0.9033 0.1762
vn -0.0404 0.4418 -0.8962
vn 0.4972 0.4231 0.7575
vn -0.6900 -0.6996 0.1856
vn 0.3659 0.1390 -0.9202
vn 0.3397 0.5254 0.7801
vn -0.8369 -0.5391 0.0953
vn 0.6422 -0.1804 -0.7450
vn 0.1772 0.6750 0.7162
vn -0.8777 -0.4736 -0.0727
vn 0.8329 -0.4445 -0.3298
vn -0.0190 0.8724 0.4885
vn -0.7993 -0.5665 -0.2003
vn 0.8624 -0.4434 0.2443
vn -0.1188 0.9929 -0.0036
vn -0.7201 -0.6692 -0.1834
vn 0.7471 -0.2320 0.6229
vn -0.0528 0.8998 -0.4330
vn -0.6731 -0.7144 -0.1910
vn 0.5870 -0.0602 0.8074
vn 0.0719 0.7804 -0.6211
vn -0.5757 -0.7894 -0.2132
vn 0.4137 0.1097 0.9038
vn 0.1471 0.6955 -0.7033
vn -0.3764 -0.9126 -0.1596
vn 0.1769 0.3624 0.9151
vn 0.1603 0.5789 -0.7995
vn -0.0309 -0.9993 -0.0208
vn -0.2686 0.5562 0.7865
vn 0.2432 0.4381 -0.8654
vn 0.3481 -0.9033 0.2507
vn -0.7559 0.4418 0.4831
vn 0.4075 0.4231 -0.8093
vn 0.5058 -0.6996 0.5048
vn -0.9799 0.1390 0.1432
vn 0.5058 0.5254 -0.6842
vn 0.5010 -0.5391 0.6771
vn -0.9663 -0.1804 -0.1837
vn 0.5316 0.6750 -0.5116
vn 0.3759 -0.4736 0.7965
vn -0.7020 -0.4445 -0.5564
vn 0.4326 0.8724 -0.2278
vn 0.2262 -0.5665 0.7924
vn -0.2196 -0.4434 -0.8690
vn 0.0563 0.9929 0.1047
vn 0.2012 -0.6692 0.7153
vn 0.1659 -0.2320 -0.9585
vn -0.3486 0.8998 0.2623
vn 0.1712 -0.7144 0.6784
vn 0.4057 -0.0602 -0.9120
vn -0.5738 0.7804 0.2483
vn 0.1032 -0.7894 0.6052
vn 0.5758 0.1097 -0.8102
vn -0.6826 0.6955 0.2243
vn 0.0499 -0.9126 0.4057
vn 0.7041 0.3624 -0.6107
vn -0.7726 0.5789 0.2609
vn -0.0026 -0.9993 0.0372
vn 0.8154 0.5562 -0.1606
vn -0.8711 0.4381 0.2221
vn 0.0430 -0.9033 -0.4268
vn 0.7964 0.4418 0.4131
vn -0.9046 0.4231 0.0518
vn 0.1843 -0.6996 -0.6904
vn 0.6140 0.1390 0.7770
vn -0.8454 0.5254 -0.0959
vn 0.3359 -0.5391 -0.7724
vn 0.3240 -0.1804 0.9287
vn -0.7088 0.6750 -0.2046
vn 0.5018 -0.4736 -0.7238
vn -0.1308 -0.4445 0.8862
vn -0.4136 0.8724 -0.2607
vn 0.5731 -0.5665 -0.5921
vn -0.6427 -0.4434 0.6247
vn 0.0626 0.9929 -0.1011
vn 0.5189 -0.6692 -0.5320
vn -0.9130 -0.2320 0.3356
vn 0.4014 0.8998 0.1707
vn 0.5020 -0.7144 -0.4874
vn -0.9927 -0.0602 0.1046
vn 0.5020 0.7804 0.3728
s 0
f 2//1 5//1 4//1 1//1
f 3//2 6//2 5//2 2//2
f 1//3 4//3 6//3 3//3
f 5//4 8//4 7//4 4//4
f 6//5 9//5 8//5 5//5
f 4//6 7//6 9//6 6//6
f 8//7 11//7 10//7 7//7
f 9//8 12//8 11//8 8//8
f 7//9 10//9 12//9 9//9
f 11//10 14//10 13//10 10//10
f 12//11 15//11 14//11 11//11
f 10//12 13//12 15//12 12//12
f 14//13 17//13 16//13 13//13
f 15//14 18//14 17//14 14//14
f 13//15 16//15 18//15 15//15
f 17//16 20//16 19//16 16//16
f 18//17 21//17 20//17 17//17
f 16//18 19//18 21//18 18//18
f 20//19 23//19 22//19 19//19
f 21//20 24//20 23//20 20//20
f 19//21 22//21 24//21 21//21
f 23//22 26//22 25//22 22//22
f 24//23 27//23 26//23 23//23
f 22//24 25//24 27//24 24//24
f 26//25 29//25 28//25 25//25
f 27//26 30//26 29//26 26//26
f 25//27 28//27 30//27 27//27
f 29//28 32//28 31//28 28//28
f 30//29 33//29 32//29 29//29
f 28//30 31//30 33//30 30//30
f 32//31 35//31 34//31 31//31
f 33//32 36//32 35//32 32//32
f 31//33 34//33 36//33 33//33
f 35//34 38//34 37//34 34//34
f 36//35 39//35 38//35 35//35
f 34//36 37//36 39//36 36//36
f 38//37 41//37 40//37 37//37
f 39//38 42//38 41//38 38//38
f 37//39 40//39 42//39 39//39
f 41//40 44//40 43//40 40//40
f 42//41 45//41 44//41 41//41
f 40//42 43//42 45//42 42//42
f 44//43 47//43 46//43 43//43
f 45//44 48//44 47//44 44//44
f 43//45 46//45 48//45 45//45
f 47//46 50//46 49//46 46//46
f 48//47 51//47 50//47 47//47
f 46//48 49//48 51//48 48//48
f 50//49 53//49 52//49 49//49
f 51//50 54//50 53//50 50//50
f 49//51 52//51 54//51 51//51
f 53//52 56//52 55//52 52//52
f 54//53 57//53 56//53 53//53
f 52//54 55//54 57//54 54//54
f 56//55 59//55 58//55 55//55
f 57//56 60//56 59//56 56//56
f 55//57 58//57 60//57 57//57
f 59//58 62//58 61//58 58//58
f 60//59 63//59 62//59 59//59
f 58//60 61//60 63//60 60//60
f 62//61 65//61 64//61 61//61
f 63//62 66//62 65//62 62//62
f 61//63 64//63 66//63 63//63
f 65//64 68//64 67//64 64//64
f 66//65 69//65 68//65 65//65
f 64//66 67//66 69//66 66//66
f 68//67 71//67 70//67 67//67
f 69//68 72//68 71//68 68//68
f 67//69 70//69 72//69 69//69
f 71//70 74//70 73//70 70//70
f 72//71 75//71 74//71 71//71
f 70//72 73//72 75//72 72//72
f 74//73 77//73 76//73 73//73
f 75//74 78//74 77//74 74//74
f 73//75 76//75 78//75 75//75
f 77//76 80//76 79//76 76//76
f 78//77 81//77 80//77 77//77
f 76//78 79//78 81//78 78//78
f 80//79 83//79 82//79 79//79
f 81//80 84//80 83//80 80//80
f 79//81 82//81 84//81 81//81
f 83//82 86//82 85//82 82//82
f 84//83 87//83 86//83 83//83
f 82//84 85//84 87//84 84//84
f 86//85 89//85 88//85 85//85
f 87//86 90//86 89//86 86//86
f 85//87 88//87 90//87 87//87
f 89//88 2//88 1//88 88//88
f 90//89 3//89 2//89 89//89
f 88//90 1//90 3//90 90//90
